<?xml version="1.0" encoding="UTF-8"?>
<svg version="1.1" xmlns="http://www.w3.org/2000/svg" width="1011" height="1080">
<path d="M0 0 C0.74584854 0.00091141 1.49169708 0.00182281 2.26014709 0.00276184 C3.02706375 -0.00152328 3.79398041 -0.00580841 4.58413696 -0.01022339 C6.20733146 -0.01597014 7.83055172 -0.0164644 9.45375061 -0.01213074 C11.93849128 -0.00897351 14.42203836 -0.03241445 16.90663147 -0.05778503 C18.48280184 -0.06005827 20.05897542 -0.06076141 21.63514709 -0.05973816 C22.75088356 -0.07355278 22.75088356 -0.07355278 23.88916016 -0.08764648 C29.05105022 -0.04132044 29.05105022 -0.04132044 31.21903992 1.57348633 C32.81461653 3.70507666 32.84886953 4.72020617 32.7559967 7.35676575 C32.73705856 8.16836151 32.71812042 8.97995728 32.6986084 9.81614685 C32.6517263 11.12861893 32.6517263 11.12861893 32.60389709 12.46760559 C32.5823002 14.33085733 32.56351071 16.19414333 32.54725647 18.05744934 C32.50831907 20.98877411 32.4520303 23.91532324 32.34632874 26.845047 C31.55463062 37.35660965 31.55463062 37.35660965 34.67591858 47.05119324 C37.82751045 50.27760929 41.53296334 52.21988173 45.51405334 54.30354309 C46.92631087 55.44648226 48.31148138 56.62574719 49.63905334 57.86604309 C52.47709729 60.41676441 55.39062294 62.81797754 58.38905334 65.17854309 C62.71166147 68.60613266 66.8279929 72.20851545 70.89686584 75.93244934 C73.01567611 77.85202819 75.15943259 79.72786159 77.32264709 81.59651184 C87.99356223 90.91732641 97.81100551 101.12945132 106.51405334 112.30354309 C107.42785544 113.41917684 108.34471551 114.5323104 109.26405334 115.64338684 C121.23233955 130.18377876 131.75560075 145.62602493 140.51405334 162.30354309 C140.84179749 162.92197083 141.16954163 163.54039856 141.50721741 164.17756653 C173.61086196 225.16492703 185.02907818 292.91302615 176.51405334 361.30354309 C176.42285217 362.11371887 176.331651 362.92389465 176.23768616 363.75862122 C172.8582527 393.33162841 163.65084124 422.22118343 151.51405334 449.30354309 C151.14973206 450.12789856 150.78541077 450.95225403 150.41004944 451.80158997 C141.41096982 472.02337025 130.05080843 490.80102833 116.51405334 508.30354309 C115.88112366 509.13627747 115.24819397 509.96901184 114.59608459 510.82698059 C112.92565904 513.00579653 111.22768763 515.15858589 109.51405334 517.30354309 C108.52211975 518.55651184 108.52211975 518.55651184 107.51014709 519.83479309 C93.10941858 537.76485936 76.8966806 554.57487743 58.45545959 568.33869934 C57.3860614 569.13691101 57.3860614 569.13691101 56.2950592 569.95124817 C54.89499681 570.99174296 53.49106194 572.02705456 52.08265686 573.05622864 C49.15738058 575.21324321 46.5096325 577.30799077 43.93983459 579.89338684 C33.4662627 590.29949612 17.52980632 597.47252553 4.38905334 603.92854309 C3.3046698 604.47973816 3.3046698 604.47973816 2.19837952 605.04206848 C0.13124084 606.03010559 0.13124084 606.03010559 -3.48594666 607.30354309 C-4.80594666 606.64354309 -6.12594666 605.98354309 -7.48594666 605.30354309 C-7.15594666 578.57354309 -6.82594666 551.84354309 -6.48594666 524.30354309 C-5.82594666 524.30354309 -5.16594666 524.30354309 -4.48594666 524.30354309 C-4.48594666 521.66354309 -4.48594666 519.02354309 -4.48594666 516.30354309 C-5.14594666 516.30354309 -5.80594666 516.30354309 -6.48594666 516.30354309 C-6.4876829 515.364812 -6.48941915 514.42608092 -6.49120802 513.45890343 C-6.59409628 457.87817235 -6.70222497 402.29745348 -6.8170636 346.71674574 C-6.83083392 340.04987749 -6.84456206 333.38300915 -6.85826111 326.71614075 C-6.85962519 326.05269211 -6.86098928 325.38924347 -6.8623947 324.70569033 C-6.90661962 303.18487122 -6.94761006 281.66404742 -6.98693078 260.14321884 C-7.02848492 237.40958834 -7.07370846 214.67596763 -7.12282521 191.94235218 C-7.15214487 178.31657222 -7.17850257 164.69079303 -7.20112563 151.06500028 C-7.21689832 141.73371123 -7.23630163 132.40243423 -7.25861507 123.07115854 C-7.27139858 117.67965194 -7.28252865 112.28815467 -7.28936577 106.89663696 C-7.29565076 101.96822278 -7.30645759 97.03984071 -7.32097996 92.1114441 C-7.32543512 90.32138347 -7.32817928 88.53131766 -7.32910865 86.74125172 C-7.33060591 84.3220472 -7.33813737 81.90293715 -7.34728146 79.4837513 C-7.34625879 78.77667595 -7.34523612 78.0696006 -7.34418246 77.34109873 C-7.32149187 73.69939879 -7.32149187 73.69939879 -8.48594666 70.30354309 C-8.55906117 68.15888167 -8.56441474 66.01180479 -8.53941345 63.86604309 C-8.53301849 63.20572083 -8.52662354 62.54539856 -8.52003479 61.86506653 C-8.49721366 59.67779075 -8.46661652 57.49071073 -8.43516541 55.30354309 C-8.41593989 53.78661812 -8.39688387 52.26969099 -8.37799072 50.75276184 C-8.33698069 47.57171049 -8.29175089 44.3907501 -8.2440033 41.20979309 C-8.18337021 37.12743691 -8.1364839 33.04505048 -8.09317303 28.96247864 C-8.05786468 25.82947618 -8.01362022 22.69664698 -7.96682167 19.563797 C-7.94573631 18.05830457 -7.92784595 16.55276397 -7.91316795 15.04719543 C-7.89166185 12.94488492 -7.85775643 10.84312831 -7.82066345 8.74104309 C-7.80432358 7.54350403 -7.7879837 6.34596497 -7.77114868 5.11213684 C-7.24189705 -0.09979256 -4.64785444 0.06412492 0 0 Z M32.51405334 97.30354309 C32.18405334 242.17354309 31.85405334 387.04354309 31.51405334 536.30354309 C48.00881094 528.0561643 62.082296 513.31667463 73.38124084 498.99494934 C75.64647623 496.13643802 78.01312121 493.38299854 80.38905334 490.61604309 C86.29472172 483.53657727 91.4499966 475.99995574 96.51405334 468.30354309 C97.19081116 467.28002747 97.86756897 466.25651184 98.56483459 465.20198059 C109.46638809 448.09353846 117.96038559 430.02425201 124.61366272 410.88459778 C125.37426832 408.70425006 126.16132414 406.53772336 126.96717834 404.37385559 C141.847843 362.83984856 143.98541171 314.61695213 136.51405334 271.30354309 C136.32601135 270.15176575 136.13796936 268.9999884 135.94422913 267.81330872 C127.52974874 217.3398146 105.38208878 170.67335758 71.51405334 132.30354309 C70.81409241 131.49272278 70.11413147 130.68190247 69.39295959 129.84651184 C64.54998747 124.32607292 59.42657795 119.08567656 54.26405334 113.86604309 C53.5780304 113.16696838 52.89200745 112.46789368 52.18519592 111.74763489 C48.81920752 108.37589196 45.74199091 105.5767835 41.51405334 103.30354309 C40.08290474 102.26063161 38.66516958 101.1989669 37.26405334 100.11604309 C35.1151725 98.16004681 35.1151725 98.16004681 32.51405334 97.30354309 Z " fill="#0C1D27" transform="translate(637.4859466552734,230.6964569091797)"/>
<path d="M0 0 C0.71873795 -0.00524185 1.43747589 -0.0104837 2.17799377 -0.0158844 C3.69685577 -0.02230231 5.21576748 -0.0209705 6.73461914 -0.01245117 C9.05510311 -0.00394767 11.37311911 -0.03268925 13.69335938 -0.06445312 C15.17057218 -0.06606549 16.64778933 -0.06548694 18.125 -0.0625 C18.81677841 -0.07373398 19.50855682 -0.08496796 20.22129822 -0.09654236 C23.32386733 -0.0518135 25.26140728 0.16986325 27.80853271 1.99777222 C30.23272889 5.2415621 30.20990908 8.01108228 30.19067383 11.90844727 C30.20858978 13.02863251 30.20858978 13.02863251 30.22686768 14.17144775 C30.26140853 16.63532526 30.26775709 19.0984005 30.2734375 21.5625 C30.29096183 23.27597203 30.31008316 24.9894284 30.33073425 26.7028656 C30.37003525 30.29142759 30.39655881 33.87976657 30.4128418 37.46850586 C30.43381587 42.07119418 30.47634942 46.6733416 30.5271349 51.27578831 C30.57475452 55.66296737 30.61217732 60.05021462 30.6484375 64.4375 C30.6561146 65.27605593 30.66379169 66.11461185 30.67170143 66.97857857 C30.69143762 69.34843754 30.70398841 71.7182176 30.71411133 74.08813477 C30.72410408 75.14254005 30.72410408 75.14254005 30.73429871 76.21824646 C30.74020065 79.24802141 30.59588922 81.53264483 29.62890625 84.43359375 C29.53318699 87.13603898 29.49499891 89.81244271 29.50306511 92.514925 C29.50088495 93.77075281 29.50088495 93.77075281 29.49866074 95.05195087 C29.49498596 97.88191133 29.498494 100.71181842 29.50192261 103.54177856 C29.50077138 105.5813067 29.49918384 107.62083463 29.49719536 109.66036212 C29.49300239 115.28403651 29.49509259 120.90769403 29.49818158 126.53136849 C29.50043555 132.58865237 29.4969561 138.64593326 29.49420166 144.70321655 C29.49000295 155.88949676 29.49037951 167.07577154 29.49311313 178.26205164 C29.49562563 188.59376779 29.49628681 198.92548195 29.49509048 209.25719833 C29.4950141 209.9417023 29.49493771 210.62620626 29.49485901 211.33145277 C29.49454769 214.10983956 29.49422929 216.88822634 29.49389925 219.66661312 C29.49083837 245.74418243 29.49361682 271.82174829 29.49899615 297.89931706 C29.50374302 321.08733952 29.50331645 344.27535649 29.49853516 367.46337891 C29.49318544 393.49533226 29.49105435 419.52728258 29.49414742 445.55923641 C29.49446816 448.33203117 29.49478099 451.10482593 29.49509048 453.8776207 C29.49516956 454.56039011 29.49524864 455.24315952 29.49533011 455.94661892 C29.49646951 466.27533798 29.49513375 476.60405484 29.49261093 486.93277359 C29.48975826 498.67068722 29.49054921 510.4085956 29.49589168 522.14650883 C29.49852983 528.14144614 29.49953183 534.13637227 29.49624252 540.13130951 C29.49328195 545.60973537 29.49486834 551.0881396 29.50022008 556.56656347 C29.50134528 558.55772989 29.50075083 560.54889811 29.49834429 562.5400634 C29.49534256 565.22805056 29.49838242 567.91596172 29.50306511 570.60394478 C29.50072394 571.39300687 29.49838278 572.18206896 29.49597067 572.99504203 C29.18569979 576.50703716 29.18569979 576.50703716 30.62890625 579.43359375 C30.73292621 582.21459788 30.76949872 584.96488948 30.75390625 587.74609375 C30.74991821 589.00280884 30.74991821 589.00280884 30.74584961 590.28491211 C30.69889444 596.6951847 30.49433496 603.09306963 30.19140625 609.49609375 C30.13267334 610.78930542 30.13267334 610.78930542 30.07275391 612.10864258 C29.75309544 618.18521538 29.75309544 618.18521538 28.62890625 620.43359375 C21.74784035 620.05078063 16.56450266 617.15986118 10.56640625 613.93359375 C9.03004517 613.11773804 9.03004517 613.11773804 7.46264648 612.28540039 C0.1834055 608.37589096 -6.85304132 604.26462663 -13.67138672 599.59619141 C-15.53211458 598.32345569 -17.40628309 597.07196602 -19.28125 595.8203125 C-26.03892308 591.27661113 -32.64311858 586.57560488 -39.05859375 581.55859375 C-39.62255859 581.11854004 -40.18652344 580.67848633 -40.76757812 580.22509766 C-44.20393261 577.49408921 -47.31896253 574.58433987 -50.37109375 571.43359375 C-52.03645896 569.74480935 -53.70312458 568.05730633 -55.37109375 566.37109375 C-56.19609375 565.53449219 -57.02109375 564.69789063 -57.87109375 563.8359375 C-60.32129461 561.4079535 -60.32129461 561.4079535 -62.984375 559.34765625 C-65.12491104 557.63102342 -66.80076742 555.96331378 -68.55859375 553.87109375 C-71.29130985 550.66235613 -74.11323973 547.57051505 -76.99609375 544.49609375 C-135.17072686 480.29435902 -160.06490039 395.10890887 -156.08984375 309.734375 C-153.79150973 270.02763072 -144.4434444 230.42647735 -127.37109375 194.43359375 C-127.0673584 193.7890625 -126.76362305 193.14453125 -126.45068359 192.48046875 C-113.6541124 165.54868971 -96.88581982 139.83339559 -76.63671875 117.91015625 C-74.75564591 115.85394904 -72.93187103 113.76710393 -71.11328125 111.65625 C-67.3388634 107.33021755 -63.32925776 103.27908656 -59.24609375 99.24609375 C-58.55644531 98.56095703 -57.86679687 97.87582031 -57.15625 97.16992188 C-55.82325341 95.84584591 -54.48915634 94.52287664 -53.15380859 93.20117188 C-51.64750863 91.70766164 -50.14903339 90.20626588 -48.65234375 88.703125 C-20.23684246 60.43359375 -20.23684246 60.43359375 -10.37109375 60.43359375 C-10.3810865 59.37243599 -10.3810865 59.37243599 -10.39128113 58.2898407 C-10.45138072 51.62440479 -10.49706214 44.95904445 -10.52653027 38.29339886 C-10.54218949 34.86646152 -10.56343179 31.43974798 -10.59741211 28.01293945 C-10.63622889 24.07375767 -10.65080091 20.13466666 -10.6640625 16.1953125 C-10.67954636 14.96399094 -10.69503021 13.73266937 -10.71098328 12.46403503 C-10.71132317 10.75260063 -10.71132317 10.75260063 -10.71166992 9.0065918 C-10.72166267 7.49768623 -10.72166267 7.49768623 -10.7318573 5.95829773 C-10.37109375 3.43359375 -10.37109375 3.43359375 -9.05645752 1.61053467 C-6.29583647 -0.3172912 -3.24825728 -0.01374412 0 0 Z M-36.53295898 133.52954102 C-39.24514286 136.24603533 -41.95161994 138.96797274 -44.64697266 141.70117188 C-46.04728804 143.10822908 -47.47656332 144.48642191 -48.9140625 145.85546875 C-52.37398696 149.48591413 -55.34737145 153.43772671 -58.37109375 157.43359375 C-58.92990234 158.16433105 -59.48871094 158.89506836 -60.06445312 159.64794922 C-88.939908 197.57025675 -107.57940397 240.18369633 -114.37109375 287.43359375 C-114.48437012 288.1901123 -114.59764648 288.94663086 -114.71435547 289.72607422 C-117.3570623 307.49859079 -117.6982505 325.4956586 -117.37109375 343.43359375 C-117.35852539 344.25375977 -117.34595703 345.07392578 -117.33300781 345.91894531 C-116.91334547 367.76708093 -113.79345068 389.53238014 -107.37109375 410.43359375 C-107.12520508 411.24924805 -106.87931641 412.06490234 -106.62597656 412.90527344 C-98.97739772 437.98147985 -88.13600041 462.6972835 -73.37109375 484.43359375 C-72.72011719 485.41972656 -72.06914062 486.40585937 -71.3984375 487.421875 C-69.11948845 490.8092784 -66.77824811 494.13657772 -64.37109375 497.43359375 C-63.95778809 498.00078125 -63.54448242 498.56796875 -63.11865234 499.15234375 C-55.72027244 509.12443611 -47.16467018 517.95313359 -38.43359375 526.74609375 C-37.89372833 527.29381439 -37.35386292 527.84153503 -36.79763794 528.40585327 C-28.85003601 536.44324669 -20.52756004 543.78826537 -11.37109375 550.43359375 C-11.04109375 550.43359375 -10.71109375 550.43359375 -10.37109375 550.43359375 C-9.49014587 537.80880621 -9.1745177 525.22792496 -9.07446289 512.57495117 C-9.05530401 510.53080526 -9.03583119 508.48666226 -9.01607323 506.44252205 C-8.96387444 500.90672108 -8.91743397 495.37088598 -8.87245059 489.83502221 C-8.84346433 486.31689022 -8.81291345 482.7987751 -8.78187752 479.28066063 C-8.30900425 425.54476956 -8.06560848 371.80782211 -7.85368407 318.07037151 C-7.80274033 305.18081984 -7.74844752 292.29128276 -7.69401252 279.40174544 C-7.58291466 253.07904191 -7.47558205 226.7563243 -7.37109375 200.43359375 C-8.03109375 200.43359375 -8.69109375 200.43359375 -9.37109375 200.43359375 C-9.36887314 199.71680954 -9.36665253 199.00002533 -9.36436462 198.26152039 C-9.34397995 191.36806422 -9.32893111 184.47461278 -9.31928158 177.58113384 C-9.31415332 174.04064799 -9.30724938 170.50018785 -9.2956543 166.9597168 C-9.23652535 148.42249218 -9.51291096 129.95525785 -10.37109375 111.43359375 C-18.03949294 111.43359375 -31.13965011 128.15463724 -36.53295898 133.52954102 Z " fill="#0C1D27" transform="translate(350.37109375,216.56640625)"/>
<path d="M0 0 C0.79273315 0.00404846 1.58546631 0.00809692 2.40222168 0.01226807 C3.62274231 0.00939789 3.62274231 0.00939789 4.86791992 0.00646973 C6.58948068 0.0051078 8.31105171 0.00880479 10.03259277 0.01715088 C12.67296338 0.02785048 15.31265357 0.01725607 17.95300293 0.00445557 C19.62357735 0.00577716 21.29415135 0.00833955 22.96472168 0.01226807 C23.75745483 0.0082196 24.55018799 0.00417114 25.36694336 0 C30.95355141 0.04797279 30.95355141 0.04797279 33.18347168 2.27789307 C33.38449228 5.28948754 33.38449228 5.28948754 33.31513023 9.257617 C33.30531389 9.9888522 33.29549754 10.7200874 33.28538372 11.47348125 C33.26237207 13.08890619 33.23462019 14.70426851 33.20286605 16.31954525 C33.15086333 18.97138358 33.11105797 21.62317265 33.07416368 24.275262 C33.01861806 28.18818481 32.95799338 32.10098355 32.89377713 36.01377356 C32.71627389 46.99055589 32.5879743 57.96797824 32.46295166 68.94546509 C32.44944054 70.1189743 32.43592943 71.29248351 32.42200889 72.5015536 C32.1021521 100.89691137 32.1288223 129.29028838 32.20403791 157.68695377 C32.20937521 159.71817295 32.21452207 161.74939252 32.21960875 163.78061233 C32.26041826 180.04334902 32.30921118 196.30605474 32.36170016 212.56875749 C32.4151133 229.17226786 32.45685742 245.77580224 32.49744159 262.37934817 C32.51466254 269.40703692 32.53221548 276.43472486 32.54974937 283.46241283 C32.55169144 284.24159357 32.5536335 285.02077431 32.55563442 285.82356659 C32.60133418 304.13834543 32.65008414 322.45311571 32.70007324 340.7678833 C32.70224325 341.56399226 32.70441325 342.36010123 32.70664902 343.1803347 C32.75762563 361.86854271 32.81068859 380.5567432 32.86761475 399.24493408 C32.87132306 400.46276789 32.87132306 400.46276789 32.87510629 401.70520441 C32.88759253 405.8036175 32.90009999 409.90203053 32.91261403 414.00044354 C32.9150892 414.81113718 32.91756437 415.62183082 32.92011455 416.45709093 C32.92511149 418.09346053 32.93011051 419.72983013 32.93511161 421.36619972 C33.01757463 448.36830082 33.08995741 475.37041366 33.15086074 502.37257228 C33.15944894 506.1747397 33.16817049 509.97690681 33.17698288 513.77907372 C33.1787148 514.52692333 33.18044672 515.27477294 33.18223112 516.04528466 C33.21038041 528.05661488 33.24947792 540.06788555 33.29296392 552.07916903 C33.33624484 564.0828334 33.36897684 576.08648756 33.39063241 588.09021083 C33.40282898 594.58633511 33.42004202 601.08234925 33.45025444 607.57841682 C33.47776286 613.51277504 33.49163344 619.4469975 33.49431328 625.38141742 C33.4977633 627.53472582 33.50637709 629.68803296 33.52048762 631.8412979 C33.53883871 634.75162124 33.5389433 637.66137295 33.53420448 640.57173634 C33.54397572 641.42040827 33.55374695 642.26908021 33.56381428 643.14346948 C33.52647367 648.84893185 33.52647367 648.84893185 31.84811135 650.94790609 C29.31669132 652.97041927 26.65504223 653.49336576 23.53894043 654.32086182 C22.56783073 654.58084709 22.56783073 654.58084709 21.57710266 654.84608459 C20.209163 655.20973861 18.83986856 655.56832934 17.46936035 655.92218018 C15.3852682 656.46169211 13.30684438 657.01982254 11.22839355 657.58062744 C-0.97378935 660.80149192 -0.97378935 660.80149192 -5.81652832 660.27789307 C-6.80652832 658.79289307 -6.80652832 658.79289307 -7.81652832 657.27789307 C-7.48652832 656.28789307 -7.15652832 655.29789307 -6.81652832 654.27789307 C-6.72691726 652.92605799 -6.69130708 651.57022263 -6.69117916 650.21542072 C-6.68867564 649.38379921 -6.68617212 648.5521777 -6.68359274 647.69535553 C-6.6859339 646.77999114 -6.68827507 645.86462675 -6.69068718 644.92152405 C-6.68923374 643.94645806 -6.6877803 642.97139208 -6.68628281 641.96677864 C-6.6826054 638.66788023 -6.68611729 635.36902753 -6.68954468 632.07012939 C-6.68839355 629.69379305 -6.68680608 627.31745689 -6.68481743 624.9411211 C-6.68150085 619.75821562 -6.68132022 614.5753196 -6.68386459 609.39241409 C-6.68763785 601.68541257 -6.68571815 593.97841988 -6.68265629 586.27141842 C-6.67738248 572.50892139 -6.67785014 558.74642899 -6.6807352 544.98393151 C-6.68324761 532.9403675 -6.68390892 520.89680519 -6.68271255 508.85324097 C-6.68263617 508.05534681 -6.68255978 507.25745266 -6.68248108 506.4353799 C-6.68216976 503.19672592 -6.68185136 499.95807193 -6.68152132 496.71941795 C-6.67846014 466.31867752 -6.68123924 435.91794004 -6.68661822 405.51720007 C-6.69136406 378.4891873 -6.69093945 351.46117923 -6.68615723 324.4331665 C-6.68080628 294.08915351 -6.67867721 263.74514313 -6.68176949 233.40112972 C-6.68209022 230.1682682 -6.68240306 226.93540669 -6.68271255 223.70254517 C-6.68279163 222.90649226 -6.68287071 222.11043935 -6.68295218 221.29026363 C-6.68409118 209.25225471 -6.68275655 197.21424767 -6.680233 185.17623901 C-6.67737889 171.49284328 -6.67807757 157.80945292 -6.68351375 144.12605786 C-6.68645803 136.4615112 -6.68663022 128.79697615 -6.68286757 121.13242978 C-6.68037251 115.42170876 -6.68306311 109.71099987 -6.68784215 104.00028074 C-6.68896579 101.68068249 -6.6883763 99.3610827 -6.68596636 97.04148543 C-6.68295659 93.90572157 -6.68601299 90.77002248 -6.69068718 87.63426208 C-6.68834601 86.71889769 -6.68600485 85.8035333 -6.68359274 84.8604306 C-6.68609626 84.02880909 -6.68859977 83.19718757 -6.69117916 82.34036541 C-6.69124692 81.62274585 -6.69131467 80.9051263 -6.69138449 80.1657607 C-6.75167117 78.05115414 -6.75167117 78.05115414 -7.81652832 75.27789307 C-7.9166425 72.94286671 -7.95485446 70.60504457 -7.96179199 68.2678833 C-7.9651506 67.55864716 -7.96850922 66.84941101 -7.9719696 66.11868286 C-7.98146809 63.77459971 -7.9834219 61.43058802 -7.98449707 59.08648682 C-7.98770949 57.45888743 -7.99107355 55.83128834 -7.99458313 54.20368958 C-8.00057097 50.79327728 -8.00242329 47.38289032 -8.00183105 43.97247314 C-8.00172924 39.59517334 -8.01540301 35.21803504 -8.03260326 30.84077358 C-8.04369985 27.48054757 -8.04575102 24.12036095 -8.04522133 20.76011848 C-8.04640416 19.14572656 -8.0508428 17.53133371 -8.0585537 15.91695976 C-8.06831022 13.66402588 -8.06549341 11.41144745 -8.05944824 9.1585083 C-8.06087326 7.87516098 -8.06229828 6.59181366 -8.06376648 5.26957703 C-7.6078284 -0.24746224 -4.89292839 0.04201609 0 0 Z " fill="#071923" transform="translate(572.8165283203125,198.72210693359375)"/>
<path d="M0 0 C5.25105442 -0.02464928 10.50207545 -0.04283568 15.75317383 -0.05493164 C17.54094021 -0.05997218 19.32870245 -0.06680454 21.11645508 -0.07543945 C23.68051168 -0.0875173 26.24451397 -0.09323094 28.80859375 -0.09765625 C29.6127623 -0.10281754 30.41693085 -0.10797882 31.24546814 -0.11329651 C33.16401715 -0.11349215 35.08245368 -0.06201983 37 0 C39.10131385 2.10131385 38.18514741 6.54146322 38.1875 9.4375 C38.19974609 10.22705078 38.21199219 11.01660156 38.22460938 11.83007812 C38.22987279 13.88807435 38.12206285 15.94562009 38 18 C37.34 18.66 36.68 19.32 36 20 C34.68 20 33.36 20 32 20 C32.12177688 21.91466367 32.12177688 21.91466367 33 24 C34.24360276 24.61467053 34.24360276 24.61467053 35.5123288 25.24175864 C38 27 38 27 38.62099248 29.81557864 C38.61909388 30.97182705 38.61719528 32.12807545 38.61523914 33.31936169 C38.62100836 33.96609359 38.62677759 34.6128255 38.63272163 35.27915534 C38.64603187 37.46173959 38.62346938 39.64250551 38.60127258 41.82499695 C38.60345159 43.39913946 38.60782697 44.97328022 38.61421841 46.54741126 C38.62543504 50.88486343 38.60534938 55.22170202 38.58032811 59.55907595 C38.55879418 64.23186875 38.56603851 68.90462518 38.56983948 73.57745361 C38.57246495 81.67733182 38.55673882 89.77700911 38.52865028 97.87683678 C38.48806515 109.5878836 38.47499818 121.29883298 38.46871033 133.00994251 C38.4577593 152.00904349 38.42446319 171.00803731 38.37719727 190.00708008 C38.33132258 208.46605899 38.29592044 226.92500882 38.2746582 245.3840332 C38.27334459 246.52129035 38.27203097 247.65854749 38.27067754 248.83026697 C38.26415249 254.53538604 38.25783392 260.2405053 38.25161803 265.94562471 C38.19975986 313.29715721 38.1116726 360.64857339 38 408 C40.31 408 42.62 408 45 408 C45.12117188 409.05058594 45.24234375 410.10117187 45.3671875 411.18359375 C46.3391501 420.00653726 46.3391501 420.00653726 48.125 428.6875 C49.86688441 435.96160928 50.50079326 445.15374743 47.1953125 452.0625 C46.80085938 452.701875 46.40640625 453.34125 46 454 C45.48179687 454.86625 44.96359375 455.7325 44.4296875 456.625 C42.11845893 459.67038352 40.44956127 461.31522716 37 463 C30.8227715 463.30603647 24.76333127 460.96947515 19 459 C18.22946289 458.74605469 17.45892578 458.49210937 16.66503906 458.23046875 C2.64792994 453.55210113 2.64792994 453.55210113 0 450 C-1.32138603 446.03584191 -1.12435135 442.25353726 -1.10088348 438.12224388 C-1.09972528 437.2205868 -1.09856708 436.31892972 -1.09737378 435.38994969 C-1.09239319 432.40645034 -1.0803147 429.42302306 -1.0682373 426.43954468 C-1.06337257 424.3434717 -1.05896741 422.2473976 -1.05500364 420.15132272 C-1.04605174 415.84640477 -1.03424291 411.54150947 -1.01990318 407.23660612 C-1.00126068 401.61182866 -0.98914347 395.98706289 -0.9801178 390.36226273 C-0.96403218 380.82790664 -0.94049143 371.29357882 -0.91545701 361.75924253 C-0.902757 356.8711174 -0.89075059 351.98299054 -0.87864685 347.09486389 C-0.85774017 338.68752573 -0.836424 330.28018869 -0.81480408 321.87285233 C-0.78354853 309.71826437 -0.75295039 297.56367483 -0.72249681 285.40908484 C-0.67303322 265.67408926 -0.62306071 245.93909501 -0.57275391 226.20410156 C-0.52397745 207.0690111 -0.47544953 187.93392004 -0.42724609 168.79882812 C-0.4242591 167.61312818 -0.4212721 166.42742823 -0.41819459 165.20579799 C-0.40320654 159.25563461 -0.38822327 153.30547121 -0.37324238 147.35530782 C-0.24956935 98.23686999 -0.12506441 49.1184343 0 0 Z " fill="#0B1D27" transform="translate(405,397)"/>
<path d="M0 0 C12.54 0 25.08 0 38 0 C38 91.74 38 183.48 38 278 C37.34 278 36.68 278 36 278 C36 280.64 36 283.28 36 286 C36.66 286 37.32 286 38 286 C38 314.38 38 342.76 38 372 C38.66 372 39.32 372 40 372 C39.91266424 373.60517097 39.80447776 375.20921662 39.6875 376.8125 C39.62949219 377.70582031 39.57148437 378.59914063 39.51171875 379.51953125 C38.89407874 382.51343511 38.49070425 383.24540596 36 385 C33.37746542 385.29818578 30.99706034 385.42058924 28.375 385.3984375 C27.63169434 385.40130768 26.88838867 385.40417786 26.12255859 385.40713501 C24.5524011 385.40917476 22.98221814 385.403651 21.41210938 385.39111328 C19.00853668 385.37505703 16.60664539 385.39096352 14.203125 385.41015625 C12.67707962 385.4081738 11.15103529 385.40433009 9.625 385.3984375 C8.90618652 385.40451019 8.18737305 385.41058289 7.44677734 385.4168396 C2.45687612 385.34649494 2.45687612 385.34649494 0.30840302 383.71709251 C-2.0325041 380.6449855 -1.36834745 376.72502909 -1.31054688 373.01416016 C-1.3076918 372.0439027 -1.30483673 371.07364525 -1.30189514 370.07398605 C-1.28832792 366.68711914 -1.25302455 363.30077942 -1.21875 359.9140625 C-1.20457039 357.39393878 -1.19190098 354.87380622 -1.18054199 352.35366821 C-1.15603841 347.23723521 -1.12481448 342.12089561 -1.08760309 337.00453937 C-0.99456868 324.20332364 -0.94334362 311.40203598 -0.89453125 298.60058594 C-0.87648323 293.95465016 -0.85822067 289.30871525 -0.83984375 284.66278076 C-0.83517656 283.48231493 -0.83050938 282.3018491 -0.82570076 281.08561158 C-0.77184935 267.62345018 -0.70863142 254.16133466 -0.64453125 240.69921875 C-0.63864613 239.46185266 -0.632761 238.22448657 -0.62669754 236.94962454 C-0.60272209 231.91254536 -0.57870792 226.87546637 -0.55462074 221.83838773 C-0.49305879 208.95711497 -0.43310543 196.07583484 -0.37324238 183.19455409 C-0.2505285 156.79636126 -0.12587377 130.39817793 0 104 C-9.24 104 -18.48 104 -28 104 C-28 88.82 -28 73.64 -28 58 C-18.76 58 -9.52 58 0 58 C0 38.86 0 19.72 0 0 Z " fill="#0E1F2B" transform="translate(487,481)"/>
<path d="M0 0 C2.36131945 0.01509608 4.72264839 0.02877565 7.08398438 0.04101562 C12.78559337 0.07099254 18.48583986 0.12977791 24.1875 0.1875 C24.1875 13.0575 24.1875 25.9275 24.1875 39.1875 C21.02285156 39.24808594 17.85820313 39.30867188 14.59765625 39.37109375 C11.54627972 39.4328305 8.49494224 39.49623997 5.44360352 39.55981445 C3.31635993 39.60323423 1.1890799 39.64490393 -0.93823242 39.68481445 C-3.98888151 39.74234707 -7.03934589 39.80608967 -10.08984375 39.87109375 C-11.04712875 39.88780624 -12.00441376 39.90451874 -12.9907074 39.92173767 C-14.31196373 39.9516555 -14.31196373 39.9516555 -15.65991211 39.98217773 C-16.43934677 39.99772202 -17.21878143 40.0132663 -18.02183533 40.02928162 C-19.83543353 39.99639119 -19.83543353 39.99639119 -20.8125 41.1875 C-23.35940608 41.47870705 -25.9073983 41.6356442 -28.46484375 41.80859375 C-32.97967938 42.31960782 -37.36816077 43.25519385 -41.8125 44.1875 C-42.81128174 44.38964111 -43.81006348 44.59178223 -44.83911133 44.80004883 C-57.44771043 47.36734074 -69.79177536 50.00738473 -81.72436523 54.91479492 C-86.4759036 56.84888815 -90.6736793 57.84189023 -95.8125 58.1875 C-98.65786549 55.34213451 -97.13548684 45.17988748 -97.16259766 41.15136719 C-97.17913471 39.34915229 -97.20639522 37.54700237 -97.24462891 35.74511719 C-97.29948253 33.14744015 -97.321286 30.55130374 -97.3359375 27.953125 C-97.35860687 27.15086487 -97.38127625 26.34860474 -97.40463257 25.52203369 C-97.38851518 21.24004809 -97.20729564 19.6776871 -94.42285156 16.22045898 C-92.00720521 14.3391377 -90.03204637 13.08929953 -87.1875 12 C-86.43210937 11.69707031 -85.67671875 11.39414063 -84.8984375 11.08203125 C-81.21432248 10.01410424 -77.5240645 9.37741392 -73.74755859 8.72094727 C-70.96065163 8.21442658 -68.20716338 7.63169172 -65.4453125 7.00390625 C-64.5378125 6.79830078 -63.6303125 6.59269531 -62.6953125 6.38085938 C-60.8947337 5.9689706 -59.09519366 5.55250658 -57.296875 5.13085938 C-38.14330987 0.82533108 -19.58970101 -0.22114039 0 0 Z " fill="#182931" transform="translate(500.8125,227.8125)"/>
<path d="M0 0 C0.79273315 0.00404846 1.58546631 0.00809692 2.40222168 0.01226807 C3.62274231 0.00939789 3.62274231 0.00939789 4.86791992 0.00646973 C6.58948068 0.0051078 8.31105171 0.00880479 10.03259277 0.01715088 C12.67296338 0.02785048 15.31265357 0.01725607 17.95300293 0.00445557 C19.62357735 0.00577716 21.29415135 0.00833955 22.96472168 0.01226807 C23.75745483 0.0082196 24.55018799 0.00417114 25.36694336 0 C30.95355141 0.04797279 30.95355141 0.04797279 33.18347168 2.27789307 C33.38449228 5.28948754 33.38449228 5.28948754 33.31513023 9.257617 C33.30531389 9.9888522 33.29549754 10.7200874 33.28538372 11.47348125 C33.26237207 13.08890619 33.23462019 14.70426851 33.20286605 16.31954525 C33.15086333 18.97138358 33.11105797 21.62317265 33.07416368 24.275262 C33.01861806 28.18818481 32.95799338 32.10098355 32.89377713 36.01377356 C32.71627389 46.99055589 32.5879743 57.96797824 32.46295166 68.94546509 C32.44944054 70.1189743 32.43592943 71.29248351 32.42200889 72.5015536 C32.1021521 100.89691137 32.1288223 129.29028838 32.20403791 157.68695377 C32.20937521 159.71817295 32.21452207 161.74939252 32.21960875 163.78061233 C32.26041826 180.04334902 32.30921118 196.30605474 32.36170016 212.56875749 C32.4151133 229.17226786 32.45685742 245.77580224 32.49744159 262.37934817 C32.51466254 269.40703692 32.53221548 276.43472486 32.54974937 283.46241283 C32.55169144 284.24159357 32.5536335 285.02077431 32.55563442 285.82356659 C32.60133418 304.13834543 32.65008414 322.45311571 32.70007324 340.7678833 C32.70224325 341.56399226 32.70441325 342.36010123 32.70664902 343.1803347 C32.75762563 361.86854271 32.81068859 380.5567432 32.86761475 399.24493408 C32.87132306 400.46276789 32.87132306 400.46276789 32.87510629 401.70520441 C32.88759253 405.8036175 32.90009999 409.90203053 32.91261403 414.00044354 C32.9150892 414.81113718 32.91756437 415.62183082 32.92011455 416.45709093 C32.92511149 418.09346053 32.93011051 419.72983013 32.93511161 421.36619972 C33.01757463 448.36830082 33.08995741 475.37041366 33.15086074 502.37257228 C33.15944894 506.1747397 33.16817049 509.97690681 33.17698288 513.77907372 C33.1787148 514.52692333 33.18044672 515.27477294 33.18223112 516.04528466 C33.21038041 528.05661488 33.24947792 540.06788555 33.29296392 552.07916903 C33.33624484 564.0828334 33.36897684 576.08648756 33.39063241 588.09021083 C33.40282898 594.58633511 33.42004202 601.08234925 33.45025444 607.57841682 C33.47776286 613.51277504 33.49163344 619.4469975 33.49431328 625.38141742 C33.4977633 627.53472582 33.50637709 629.68803296 33.52048762 631.8412979 C33.53883871 634.75162124 33.5389433 637.66137295 33.53420448 640.57173634 C33.54397572 641.42040827 33.55374695 642.26908021 33.56381428 643.14346948 C33.52647367 648.84893185 33.52647367 648.84893185 31.84811135 650.94790609 C29.31669132 652.97041927 26.65504223 653.49336576 23.53894043 654.32086182 C22.56783073 654.58084709 22.56783073 654.58084709 21.57710266 654.84608459 C20.209163 655.20973861 18.83986856 655.56832934 17.46936035 655.92218018 C15.3852682 656.46169211 13.30684438 657.01982254 11.22839355 657.58062744 C-0.97378935 660.80149192 -0.97378935 660.80149192 -5.81652832 660.27789307 C-6.80652832 658.79289307 -6.80652832 658.79289307 -7.81652832 657.27789307 C-7.48652832 656.28789307 -7.15652832 655.29789307 -6.81652832 654.27789307 C-6.72691726 652.92605799 -6.69130708 651.57022263 -6.69117916 650.21542072 C-6.68867564 649.38379921 -6.68617212 648.5521777 -6.68359274 647.69535553 C-6.6859339 646.77999114 -6.68827507 645.86462675 -6.69068718 644.92152405 C-6.68923374 643.94645806 -6.6877803 642.97139208 -6.68628281 641.96677864 C-6.6826054 638.66788023 -6.68611729 635.36902753 -6.68954468 632.07012939 C-6.68839355 629.69379305 -6.68680608 627.31745689 -6.68481743 624.9411211 C-6.68150085 619.75821562 -6.68132022 614.5753196 -6.68386459 609.39241409 C-6.68763785 601.68541257 -6.68571815 593.97841988 -6.68265629 586.27141842 C-6.67738248 572.50892139 -6.67785014 558.74642899 -6.6807352 544.98393151 C-6.68324761 532.9403675 -6.68390892 520.89680519 -6.68271255 508.85324097 C-6.68263617 508.05534681 -6.68255978 507.25745266 -6.68248108 506.4353799 C-6.68216976 503.19672592 -6.68185136 499.95807193 -6.68152132 496.71941795 C-6.67846014 466.31867752 -6.68123924 435.91794004 -6.68661822 405.51720007 C-6.69136406 378.4891873 -6.69093945 351.46117923 -6.68615723 324.4331665 C-6.68080628 294.08915351 -6.67867721 263.74514313 -6.68176949 233.40112972 C-6.68209022 230.1682682 -6.68240306 226.93540669 -6.68271255 223.70254517 C-6.68279163 222.90649226 -6.68287071 222.11043935 -6.68295218 221.29026363 C-6.68409118 209.25225471 -6.68275655 197.21424767 -6.680233 185.17623901 C-6.67737889 171.49284328 -6.67807757 157.80945292 -6.68351375 144.12605786 C-6.68645803 136.4615112 -6.68663022 128.79697615 -6.68286757 121.13242978 C-6.68037251 115.42170876 -6.68306311 109.71099987 -6.68784215 104.00028074 C-6.68896579 101.68068249 -6.6883763 99.3610827 -6.68596636 97.04148543 C-6.68295659 93.90572157 -6.68601299 90.77002248 -6.69068718 87.63426208 C-6.68834601 86.71889769 -6.68600485 85.8035333 -6.68359274 84.8604306 C-6.68609626 84.02880909 -6.68859977 83.19718757 -6.69117916 82.34036541 C-6.69124692 81.62274585 -6.69131467 80.9051263 -6.69138449 80.1657607 C-6.75167117 78.05115414 -6.75167117 78.05115414 -7.81652832 75.27789307 C-7.9166425 72.94286671 -7.95485446 70.60504457 -7.96179199 68.2678833 C-7.9651506 67.55864716 -7.96850922 66.84941101 -7.9719696 66.11868286 C-7.98146809 63.77459971 -7.9834219 61.43058802 -7.98449707 59.08648682 C-7.98770949 57.45888743 -7.99107355 55.83128834 -7.99458313 54.20368958 C-8.00057097 50.79327728 -8.00242329 47.38289032 -8.00183105 43.97247314 C-8.00172924 39.59517334 -8.01540301 35.21803504 -8.03260326 30.84077358 C-8.04369985 27.48054757 -8.04575102 24.12036095 -8.04522133 20.76011848 C-8.04640416 19.14572656 -8.0508428 17.53133371 -8.0585537 15.91695976 C-8.06831022 13.66402588 -8.06549341 11.41144745 -8.05944824 9.1585083 C-8.06087326 7.87516098 -8.06229828 6.59181366 -8.06376648 5.26957703 C-7.6078284 -0.24746224 -4.89292839 0.04201609 0 0 Z M-4.81652832 2.27789307 C-4.81652832 218.75789307 -4.81652832 435.23789307 -4.81652832 658.27789307 C5.95412483 657.20082775 15.19173803 655.3532088 25.12487793 651.14508057 C26.78130526 650.44730662 28.47831011 649.84628026 30.18347168 649.27789307 C30.18347168 435.76789307 30.18347168 222.25789307 30.18347168 2.27789307 C18.63347168 2.27789307 7.08347168 2.27789307 -4.81652832 2.27789307 Z " fill="#91A6AD" transform="translate(572.8165283203125,198.72210693359375)"/>
<path d="M0 0 C0.71873795 -0.00524185 1.43747589 -0.0104837 2.17799377 -0.0158844 C3.69685577 -0.02230231 5.21576748 -0.0209705 6.73461914 -0.01245117 C9.05510311 -0.00394767 11.37311911 -0.03268925 13.69335938 -0.06445312 C15.17057218 -0.06606549 16.64778933 -0.06548694 18.125 -0.0625 C18.81677841 -0.07373398 19.50855682 -0.08496796 20.22129822 -0.09654236 C23.32386733 -0.0518135 25.26140728 0.16986325 27.80853271 1.99777222 C30.23272889 5.2415621 30.20990908 8.01108228 30.19067383 11.90844727 C30.2026178 12.65523743 30.21456177 13.40202759 30.22686768 14.17144775 C30.26140853 16.63532526 30.26775709 19.0984005 30.2734375 21.5625 C30.29096183 23.27597203 30.31008316 24.9894284 30.33073425 26.7028656 C30.37003525 30.29142759 30.39655881 33.87976657 30.4128418 37.46850586 C30.43381587 42.07119418 30.47634942 46.6733416 30.5271349 51.27578831 C30.57475452 55.66296737 30.61217732 60.05021462 30.6484375 64.4375 C30.6561146 65.27605593 30.66379169 66.11461185 30.67170143 66.97857857 C30.69143762 69.34843754 30.70398841 71.7182176 30.71411133 74.08813477 C30.72077316 74.79107162 30.727435 75.49400848 30.73429871 76.21824646 C30.74020065 79.24802141 30.59588922 81.53264483 29.62890625 84.43359375 C29.53318699 87.13603898 29.49499891 89.81244271 29.50306511 92.514925 C29.50161167 93.35214354 29.50015823 94.18936208 29.49866074 95.05195087 C29.49498596 97.88191133 29.498494 100.71181842 29.50192261 103.54177856 C29.50077138 105.5813067 29.49918384 107.62083463 29.49719536 109.66036212 C29.49300239 115.28403651 29.49509259 120.90769403 29.49818158 126.53136849 C29.50043555 132.58865237 29.4969561 138.64593326 29.49420166 144.70321655 C29.49000295 155.88949676 29.49037951 167.07577154 29.49311313 178.26205164 C29.49562563 188.59376779 29.49628681 198.92548195 29.49509048 209.25719833 C29.4950141 209.9417023 29.49493771 210.62620626 29.49485901 211.33145277 C29.49454769 214.10983956 29.49422929 216.88822634 29.49389925 219.66661312 C29.49083837 245.74418243 29.49361682 271.82174829 29.49899615 297.89931706 C29.50374302 321.08733952 29.50331645 344.27535649 29.49853516 367.46337891 C29.49318544 393.49533226 29.49105435 419.52728258 29.49414742 445.55923641 C29.49446816 448.33203117 29.49478099 451.10482593 29.49509048 453.8776207 C29.4952091 454.90177482 29.4952091 454.90177482 29.49533011 455.94661892 C29.49646951 466.27533798 29.49513375 476.60405484 29.49261093 486.93277359 C29.48975826 498.67068722 29.49054921 510.4085956 29.49589168 522.14650883 C29.49852983 528.14144614 29.49953183 534.13637227 29.49624252 540.13130951 C29.49328195 545.60973537 29.49486834 551.0881396 29.50022008 556.56656347 C29.50134528 558.55772989 29.50075083 560.54889811 29.49834429 562.5400634 C29.49534256 565.22805056 29.49838242 567.91596172 29.50306511 570.60394478 C29.50072394 571.39300687 29.49838278 572.18206896 29.49597067 572.99504203 C29.18569979 576.50703716 29.18569979 576.50703716 30.62890625 579.43359375 C30.73292621 582.21459788 30.76949872 584.96488948 30.75390625 587.74609375 C30.75124756 588.58390381 30.74858887 589.42171387 30.74584961 590.28491211 C30.69889444 596.6951847 30.49433496 603.09306963 30.19140625 609.49609375 C30.13267334 610.78930542 30.13267334 610.78930542 30.07275391 612.10864258 C29.75309544 618.18521538 29.75309544 618.18521538 28.62890625 620.43359375 C23.09531469 619.92795025 19.0686005 618.47742507 14.19140625 615.87109375 C13.55525391 615.54173828 12.91910156 615.21238281 12.26367188 614.87304688 C10.71396049 614.06906127 9.17072303 613.25261709 7.62890625 612.43359375 C10.21350626 611.45849466 11.26657214 611.27666736 13.84765625 612.39453125 C14.60046875 612.86117187 15.35328125 613.3278125 16.12890625 613.80859375 C18.97149011 615.5511366 21.3440194 616.79154768 24.62890625 617.43359375 C25.78137906 615.12864812 25.7558433 613.83153253 25.75951678 611.26744688 C25.76319749 610.38713438 25.7668782 609.50682188 25.77067044 608.59983325 C25.76913644 607.13733169 25.76913644 607.13733169 25.76757145 605.64528465 C25.77041367 604.61138064 25.77325589 603.57747663 25.77618423 602.5122422 C25.78458351 599.00720759 25.78580352 595.5022058 25.78712463 591.99716187 C25.79168643 589.47518193 25.79668588 586.95320274 25.8020882 584.43122447 C25.81286754 578.9270847 25.82052588 573.42295392 25.82548714 567.91880608 C25.83288107 559.73426942 25.84596138 551.54974886 25.86023289 543.36522166 C25.88407444 529.59929382 25.90326555 515.83336313 25.91983223 502.06742477 C25.93625716 488.43182356 25.95473312 474.79622769 25.9759655 461.16063309 C25.97728311 460.31371268 25.97860071 459.46679228 25.97995825 458.59420762 C25.98666007 454.29335805 25.9933987 449.99250854 26.00015151 445.69165905 C26.04795071 415.20622839 26.09112533 384.72079276 26.1315918 354.23535156 C26.17092192 324.61392861 26.21233964 294.99250978 26.2565918 265.37109375 C26.25795433 264.45848864 26.25931686 263.54588353 26.26072067 262.60562372 C26.27440571 253.44110555 26.28813328 244.27658744 26.30189202 235.11206938 C26.3299207 216.44187027 26.35766548 197.77167074 26.38523865 179.10147095 C26.38650685 178.2429918 26.38777505 177.38451264 26.38908167 176.50001897 C26.4737782 119.14455058 26.5517794 61.78907275 26.62890625 4.43359375 C15.73890625 4.43359375 4.84890625 4.43359375 -6.37109375 4.43359375 C-6.70109375 23.24359375 -7.03109375 42.05359375 -7.37109375 61.43359375 C-10.34109375 62.42359375 -13.31109375 63.41359375 -16.37109375 64.43359375 C-15.08144199 63.05796521 -13.74420082 61.72592982 -12.37109375 60.43359375 C-11.71109375 60.43359375 -11.05109375 60.43359375 -10.37109375 60.43359375 C-10.37775558 59.72615524 -10.38441742 59.01871674 -10.39128113 58.2898407 C-10.45138072 51.62440479 -10.49706214 44.95904445 -10.52653027 38.29339886 C-10.54218949 34.86646152 -10.56343179 31.43974798 -10.59741211 28.01293945 C-10.63622889 24.07375767 -10.65080091 20.13466666 -10.6640625 16.1953125 C-10.67954636 14.96399094 -10.69503021 13.73266937 -10.71098328 12.46403503 C-10.71120987 11.32307877 -10.71143646 10.1821225 -10.71166992 9.0065918 C-10.71833176 8.00065475 -10.72499359 6.99471771 -10.7318573 5.95829773 C-10.37109375 3.43359375 -10.37109375 3.43359375 -9.05645752 1.61053467 C-6.29583647 -0.3172912 -3.24825728 -0.01374412 0 0 Z " fill="#5A727C" transform="translate(350.37109375,216.56640625)"/>
<path d="M0 0 C3.26157979 1.6307899 5.66964427 3.15530321 8.5 5.375 C9.2528125 5.96023438 10.005625 6.54546875 10.78125 7.1484375 C12.9879322 8.98992934 15.0007324 10.93711934 17 13 C13 12 13 12 4 5 C3.67 149.21 3.34 293.42 3 442 C5.64 440.02 8.28 438.04 11 436 C12.32 435.01 13.64 434.02 15 433 C15.66 433.33 16.32 433.66 17 434 C14.73671476 436.0091515 12.46519224 438.0072998 10.1875 440 C9.54490234 440.57234375 8.90230469 441.1446875 8.24023438 441.734375 C7.61826172 442.27578125 6.99628906 442.8171875 6.35546875 443.375 C5.49924927 444.12910156 5.49924927 444.12910156 4.62573242 444.8984375 C3 446 3 446 0 446 C0 298.82 0 151.64 0 0 Z " fill="#CFDCE0" transform="translate(667,324)"/>
<path d="M0 0 C5.25105442 -0.02464928 10.50207545 -0.04283568 15.75317383 -0.05493164 C17.54094021 -0.05997218 19.32870245 -0.06680454 21.11645508 -0.07543945 C23.68051168 -0.0875173 26.24451397 -0.09323094 28.80859375 -0.09765625 C29.6127623 -0.10281754 30.41693085 -0.10797882 31.24546814 -0.11329651 C33.16401715 -0.11349215 35.08245368 -0.06201983 37 0 C38 1 38 1 38.09765625 4.81640625 C38.09098089 6.39846682 38.07901875 7.98051159 38.0625 9.5625 C38.05798828 10.36880859 38.05347656 11.17511719 38.04882812 12.00585938 C38.03700518 14.00393756 38.01906914 16.00197783 38 18 C37.01 18.495 37.01 18.495 36 19 C36 13.06 36 7.12 36 1 C24.78 1 13.56 1 2 1 C2 149.5 2 298 2 451 C3.32 451.33 4.64 451.66 6 452 C6.66 452.66 7.32 453.32 8 454 C4.33535945 453.5047783 2.29167646 452.9791794 0 450 C-1.32138603 446.03584191 -1.12435135 442.25353726 -1.10088348 438.12224388 C-1.09972528 437.2205868 -1.09856708 436.31892972 -1.09737378 435.38994969 C-1.09239319 432.40645034 -1.0803147 429.42302306 -1.0682373 426.43954468 C-1.06337257 424.3434717 -1.05896741 422.2473976 -1.05500364 420.15132272 C-1.04605174 415.84640477 -1.03424291 411.54150947 -1.01990318 407.23660612 C-1.00126068 401.61182866 -0.98914347 395.98706289 -0.9801178 390.36226273 C-0.96403218 380.82790664 -0.94049143 371.29357882 -0.91545701 361.75924253 C-0.902757 356.8711174 -0.89075059 351.98299054 -0.87864685 347.09486389 C-0.85774017 338.68752573 -0.836424 330.28018869 -0.81480408 321.87285233 C-0.78354853 309.71826437 -0.75295039 297.56367483 -0.72249681 285.40908484 C-0.67303322 265.67408926 -0.62306071 245.93909501 -0.57275391 226.20410156 C-0.52397745 207.0690111 -0.47544953 187.93392004 -0.42724609 168.79882812 C-0.4242591 167.61312818 -0.4212721 166.42742823 -0.41819459 165.20579799 C-0.40320654 159.25563461 -0.38822327 153.30547121 -0.37324238 147.35530782 C-0.24956935 98.23686999 -0.12506441 49.1184343 0 0 Z " fill="#BAC9CF" transform="translate(405,397)"/>
<path d="M0 0 C0.66 0 1.32 0 2 0 C2 91.74 2 183.48 2 278 C13.22 278 24.44 278 36 278 C36 246.32 36 214.64 36 182 C36.66 182 37.32 182 38 182 C38 210.38 38 238.76 38 268 C38.66 268 39.32 268 40 268 C39.91266424 269.60517097 39.80447776 271.20921662 39.6875 272.8125 C39.60048828 274.15248047 39.60048828 274.15248047 39.51171875 275.51953125 C38.89407874 278.51343511 38.49070425 279.24540596 36 281 C33.37746542 281.29818578 30.99706034 281.42058924 28.375 281.3984375 C27.63169434 281.40130768 26.88838867 281.40417786 26.12255859 281.40713501 C24.5524011 281.40917476 22.98221814 281.403651 21.41210938 281.39111328 C19.00853668 281.37505703 16.60664539 281.39096352 14.203125 281.41015625 C12.67707962 281.4081738 11.15103529 281.40433009 9.625 281.3984375 C8.90618652 281.40451019 8.18737305 281.41058289 7.44677734 281.4168396 C2.45687612 281.34649494 2.45687612 281.34649494 0.30840302 279.71709251 C-2.0325041 276.6449855 -1.36834745 272.72502909 -1.31054688 269.01416016 C-1.3076918 268.0439027 -1.30483673 267.07364525 -1.30189514 266.07398605 C-1.28832792 262.68711914 -1.25302455 259.30077942 -1.21875 255.9140625 C-1.20457039 253.39393878 -1.19190098 250.87380622 -1.18054199 248.35366821 C-1.15603841 243.23723521 -1.12481448 238.12089561 -1.08760309 233.00453937 C-0.99456868 220.20332364 -0.94334362 207.40203598 -0.89453125 194.60058594 C-0.87648323 189.95465016 -0.85822067 185.30871525 -0.83984375 180.66278076 C-0.83517656 179.48231493 -0.83050938 178.3018491 -0.82570076 177.08561158 C-0.77184935 163.62345018 -0.70863142 150.16133466 -0.64453125 136.69921875 C-0.63864613 135.46185266 -0.632761 134.22448657 -0.62669754 132.94962454 C-0.60272209 127.91254536 -0.57870792 122.87546637 -0.55462074 117.83838773 C-0.49305879 104.95711497 -0.43310543 92.07583484 -0.37324238 79.19455409 C-0.2505285 52.79636128 -0.12592979 26.39817765 0 0 Z " fill="#A4B7BD" transform="translate(487,585)"/>
<path d="M0 0 C0.74584854 0.00091141 1.49169708 0.00182281 2.26014709 0.00276184 C3.02706375 -0.00152328 3.79398041 -0.00580841 4.58413696 -0.01022339 C6.20733146 -0.01597014 7.83055172 -0.0164644 9.45375061 -0.01213074 C11.93849128 -0.00897351 14.42203836 -0.03241445 16.90663147 -0.05778503 C18.48280184 -0.06005827 20.05897542 -0.06076141 21.63514709 -0.05973816 C22.75088356 -0.07355278 22.75088356 -0.07355278 23.88916016 -0.08764648 C29.05105022 -0.04132044 29.05105022 -0.04132044 31.21903992 1.57348633 C32.81461653 3.70507666 32.84886953 4.72020617 32.7559967 7.35676575 C32.73705856 8.16836151 32.71812042 8.97995728 32.6986084 9.81614685 C32.6517263 11.12861893 32.6517263 11.12861893 32.60389709 12.46760559 C32.5823002 14.33085733 32.56351071 16.19414333 32.54725647 18.05744934 C32.50831907 20.98877411 32.4520303 23.91532324 32.34632874 26.845047 C31.53951844 37.37728985 31.53951844 37.37728985 34.7101593 47.06025696 C37.88168827 50.24109583 41.58112116 52.16922267 45.51405334 54.30354309 C46.17405334 55.29354309 46.83405334 56.28354309 47.51405334 57.30354309 C42.58264196 56.88085069 40.85454558 54.79940706 37.51405334 51.30354309 C36.14299872 50.44991172 34.76981102 49.59970023 33.39491272 48.75227356 C31.00415848 46.97181591 29.72774823 45.96911825 28.8094635 43.10902405 C28.58916025 40.47562094 28.61296909 37.95124574 28.73280334 35.31135559 C28.74412292 34.36541534 28.7554425 33.4194751 28.7671051 32.44487 C28.81172529 29.43732614 28.91205412 26.4346336 29.01405334 23.42854309 C29.05419921 21.38434135 29.09069805 19.34006451 29.12342834 17.29573059 C29.20460929 12.29498464 29.36108802 7.30465942 29.51405334 2.30354309 C17.96405334 2.30354309 6.41405334 2.30354309 -5.48594666 2.30354309 C-5.48594666 171.92354309 -5.48594666 341.54354309 -5.48594666 516.30354309 C-5.81594666 516.30354309 -6.14594666 516.30354309 -6.48594666 516.30354309 C-6.4876829 515.364812 -6.48941915 514.42608092 -6.49120802 513.45890343 C-6.59409628 457.87817235 -6.70222497 402.29745348 -6.8170636 346.71674574 C-6.83083392 340.04987749 -6.84456206 333.38300915 -6.85826111 326.71614075 C-6.85962519 326.05269211 -6.86098928 325.38924347 -6.8623947 324.70569033 C-6.90661962 303.18487122 -6.94761006 281.66404742 -6.98693078 260.14321884 C-7.02848492 237.40958834 -7.07370846 214.67596763 -7.12282521 191.94235218 C-7.15214487 178.31657222 -7.17850257 164.69079303 -7.20112563 151.06500028 C-7.21689832 141.73371123 -7.23630163 132.40243423 -7.25861507 123.07115854 C-7.27139858 117.67965194 -7.28252865 112.28815467 -7.28936577 106.89663696 C-7.29565076 101.96822278 -7.30645759 97.03984071 -7.32097996 92.1114441 C-7.32543512 90.32138347 -7.32817928 88.53131766 -7.32910865 86.74125172 C-7.33060591 84.3220472 -7.33813737 81.90293715 -7.34728146 79.4837513 C-7.34625879 78.77667595 -7.34523612 78.0696006 -7.34418246 77.34109873 C-7.32149187 73.69939879 -7.32149187 73.69939879 -8.48594666 70.30354309 C-8.55906117 68.15888167 -8.56441474 66.01180479 -8.53941345 63.86604309 C-8.53301849 63.20572083 -8.52662354 62.54539856 -8.52003479 61.86506653 C-8.49721366 59.67779075 -8.46661652 57.49071073 -8.43516541 55.30354309 C-8.41593989 53.78661812 -8.39688387 52.26969099 -8.37799072 50.75276184 C-8.33698069 47.57171049 -8.29175089 44.3907501 -8.2440033 41.20979309 C-8.18337021 37.12743691 -8.1364839 33.04505048 -8.09317303 28.96247864 C-8.05786468 25.82947618 -8.01362022 22.69664698 -7.96682167 19.563797 C-7.94573631 18.05830457 -7.92784595 16.55276397 -7.91316795 15.04719543 C-7.89166185 12.94488492 -7.85775643 10.84312831 -7.82066345 8.74104309 C-7.80432358 7.54350403 -7.7879837 6.34596497 -7.77114868 5.11213684 C-7.24189705 -0.09979256 -4.64785444 0.06412492 0 0 Z " fill="#A9BDC4" transform="translate(637.4859466552734,230.6964569091797)"/>
<path d="M0 0 C2.81010708 2.81010708 2.31488242 5.4836881 2.3347168 9.24780273 C2.34636871 9.99430084 2.35802063 10.74079895 2.37002563 11.50991821 C2.40609268 13.9844537 2.42790213 16.45889055 2.44921875 18.93359375 C2.47046424 20.64991639 2.49243105 22.36623024 2.51509094 24.08253479 C2.56053936 27.68299483 2.59931727 31.28344477 2.63305664 34.8840332 C2.67656836 39.5023752 2.73329531 44.12043384 2.7946043 48.73857021 C2.84077097 52.28408025 2.88157078 55.8296353 2.92057228 59.37523079 C2.93963985 61.0781203 2.9599999 62.78099584 2.98166466 64.48385429 C3.01080739 66.8634855 3.0331284 69.24308211 3.0534668 71.62280273 C3.06327072 72.32888168 3.07307465 73.03496063 3.08317566 73.76243591 C3.10261977 76.80440029 2.97103475 79.08689574 2 82 C1.90428074 84.70244523 1.86609266 87.37884896 1.87415886 90.08133125 C1.87270542 90.91854979 1.87125198 91.75576833 1.86975449 92.61835712 C1.86607971 95.44831758 1.86958775 98.27822467 1.87301636 101.10818481 C1.87186513 103.14771295 1.87027759 105.18724088 1.86828911 107.22676837 C1.86409614 112.85044276 1.86618634 118.47410028 1.86927533 124.09777474 C1.8715293 130.15505862 1.86804985 136.21233951 1.86529541 142.2696228 C1.8610967 153.45590301 1.86147326 164.64217779 1.86420688 175.82845789 C1.86671938 186.16017404 1.86738056 196.4918882 1.86618423 206.82360458 C1.86610785 207.50810855 1.86603146 208.19261251 1.86595276 208.89785902 C1.86564144 211.67624581 1.86532304 214.45463259 1.864993 217.23301937 C1.86193212 243.31058868 1.86471057 269.38815454 1.8700899 295.46572331 C1.87483677 318.65374577 1.8744102 341.84176274 1.86962891 365.02978516 C1.86427919 391.06173851 1.8621481 417.09368883 1.86524117 443.12564266 C1.86556191 445.89843742 1.86587474 448.67123218 1.86618423 451.44402695 C1.86626331 452.12679636 1.86634239 452.80956577 1.86642386 453.51302517 C1.86756326 463.84174423 1.8662275 474.17046109 1.86370468 484.49917984 C1.86085201 496.23709347 1.86164296 507.97500185 1.86698543 519.71291508 C1.86962358 525.70785239 1.87062558 531.70277852 1.86733627 537.69771576 C1.8643757 543.17614162 1.86596209 548.65454585 1.87131383 554.13296972 C1.87243903 556.12413614 1.87184458 558.11530436 1.86943804 560.10646965 C1.86643631 562.79445681 1.86947617 565.48236797 1.87415886 568.17035103 C1.87181769 568.95941312 1.86947653 569.74847521 1.86706442 570.56144828 C1.55679354 574.07344341 1.55679354 574.07344341 3 577 C3.10401996 579.78100413 3.14059247 582.53129573 3.125 585.3125 C3.12234131 586.15031006 3.11968262 586.98812012 3.11694336 587.85131836 C3.06998819 594.26159095 2.86542871 600.65947588 2.5625 607.0625 C2.50376709 608.35571167 2.50376709 608.35571167 2.44384766 609.67504883 C2.12418919 615.75162163 2.12418919 615.75162163 1 618 C-0.32 617.67 -1.64 617.34 -3 617 C-2.01 617 -1.02 617 0 617 C0 413.39 0 209.78 0 0 Z " fill="#F6FAFB" transform="translate(378,219)"/>
<path d="M0 0 C0.33 0 0.66 0 1 0 C1 48.18 1 96.36 1 146 C3.31 146 5.62 146 8 146 C8.12117188 147.05058594 8.24234375 148.10117187 8.3671875 149.18359375 C9.3391501 158.00653726 9.3391501 158.00653726 11.125 166.6875 C12.86688441 173.96160928 13.50079326 183.15374743 10.1953125 190.0625 C9.80085938 190.701875 9.40640625 191.34125 9 192 C8.48179687 192.86625 7.96359375 193.7325 7.4296875 194.625 C5.10994989 197.68159544 3.47197715 199.32402639 0 201 C-6.17664753 201.19429103 -12.22206441 198.96065317 -18 197 C-19.78664063 196.41025391 -19.78664063 196.41025391 -21.609375 195.80859375 C-24.10402963 194.9328795 -26.55780907 194.01130373 -29 193 C-25.45682681 191.81894227 -24.09985073 192.26468736 -20.52734375 193.1796875 C-18.93116211 193.58380859 -18.93116211 193.58380859 -17.30273438 193.99609375 C-16.19220703 194.28613281 -15.08167969 194.57617188 -13.9375 194.875 C-12.82310547 195.15730469 -11.70871094 195.43960938 -10.56054688 195.73046875 C-2.32274845 197.83862578 -2.32274845 197.83862578 0 199 C0 133.33 0 67.66 0 0 Z " fill="#ECF3F5" transform="translate(442,659)"/>
<path d="M0 0 C0.33 0 0.66 0 1 0 C1.14668788 52.48827337 1.28979909 104.97655532 1.41304016 157.46488953 C1.41486407 158.24124074 1.41668798 159.01759196 1.41856716 159.81746896 C1.45817947 176.68805609 1.49712334 193.55864469 1.53537826 210.42923494 C1.55414145 218.70209116 1.57305241 226.97494703 1.59204102 235.24780273 C1.5948717 236.4827018 1.5948717 236.4827018 1.59775956 237.74254833 C1.6590397 264.44610106 1.73008503 291.14961701 1.80617301 317.85313131 C1.88428591 345.285349 1.95258982 372.71757394 2.00848107 400.14984634 C2.01637271 404.02092527 2.02437694 407.89200395 2.03244972 411.7630825 C2.03403514 412.52499615 2.03562056 413.2869098 2.03725402 414.07191173 C2.06310584 426.35630478 2.09935469 438.64064639 2.13945345 450.92500028 C2.17950683 463.26300393 2.20869776 475.6009949 2.22667392 487.93905083 C2.23672498 494.62893137 2.25207664 501.31869479 2.28024101 508.00853157 C2.30588262 514.12436421 2.31785822 520.24006056 2.31862888 526.35594549 C2.3213813 528.57672375 2.32929454 530.79750238 2.34269472 533.01824192 C2.36008359 536.02089923 2.35922809 539.02299657 2.35352612 542.02568531 C2.3630115 542.90179861 2.37249689 543.7779119 2.38226971 544.68057409 C2.34302588 550.56925861 2.34302588 550.56925861 0.66456776 552.67691703 C-1.86881411 554.69057757 -4.53211541 555.21645152 -7.64453125 556.04296875 C-8.61564095 556.30295403 -8.61564095 556.30295403 -9.60636902 556.56819153 C-10.97430868 556.93184555 -12.34360311 557.29043627 -13.71411133 557.64428711 C-15.79820348 558.18379904 -17.8766273 558.74192948 -19.95507812 559.30273438 C-32.15726103 562.52359886 -32.15726103 562.52359886 -37 562 C-37.99 560.515 -37.99 560.515 -39 559 C-38.34 558.01 -37.68 557.02 -37 556 C-37 557.32 -37 558.64 -37 560 C-28.26070472 558.45555558 -19.87707481 556.52390644 -11.45703125 553.71411133 C-7.56952219 552.42777378 -4.10003975 551.68333996 0 551 C0 369.17 0 187.34 0 0 Z " fill="#F6FAFA" transform="translate(604,297)"/>
<path d="M0 0 C0.33 0 0.66 0 1 0 C1 115.5 1 231 1 350 C-1.93995462 348.53002269 -3.79607529 347.50174724 -6.19921875 345.46875 C-6.76833984 344.98792969 -7.33746094 344.50710938 -7.92382812 344.01171875 C-8.50583984 343.51285156 -9.08785156 343.01398438 -9.6875 342.5 C-10.28111328 342.00113281 -10.87472656 341.50226563 -11.48632812 340.98828125 C-15.87051246 337.25897507 -15.87051246 337.25897507 -17 335 C-11.6770895 337.36297429 -7.47551387 341.3489229 -3 345 C-2.07536632 332.71580846 -1.80016153 320.48357601 -1.70336914 308.16870117 C-1.68421709 306.11751073 -1.66474426 304.06632326 -1.64497948 302.01513863 C-1.59276148 296.46008362 -1.54633727 290.90499443 -1.50135684 285.34987664 C-1.47238948 281.82298848 -1.44183742 278.29611743 -1.41078377 274.76924706 C-0.94407812 221.65310851 -0.69622141 168.53597054 -0.48259032 115.41830719 C-0.43161357 102.77058917 -0.37733503 90.12288579 -0.32291877 77.47518218 C-0.21187439 51.6501352 -0.10453418 25.82507409 0 0 Z " fill="#576D78" transform="translate(342,421)"/>
<path d="M0 0 C4.60679249 1.842717 7.09480569 3.48959516 10.8125 6.625 C11.78832031 7.44226563 12.76414062 8.25953125 13.76953125 9.1015625 C14.50558594 9.72804688 15.24164062 10.35453125 16 11 C15.01 11.33 14.02 11.66 13 12 C11.02734375 10.6015625 11.02734375 10.6015625 8.9375 8.625 C6.18958113 5.99549245 6.18958113 5.99549245 3 4 C2.99576806 5.00552257 2.99153612 6.01104513 2.98717594 7.04703808 C2.88403649 31.50025872 2.77529497 55.95344954 2.66066074 80.40661907 C2.60535482 92.23192545 2.55187711 104.05723484 2.50268555 115.88256836 C2.45981151 126.18809699 2.41352535 136.49360365 2.36312145 146.79909831 C2.3365465 152.25704144 2.31169402 157.71498027 2.29092598 163.17294884 C2.27133057 168.30858514 2.24717803 173.44417971 2.21950912 178.57977867 C2.21015409 180.46597536 2.20247326 182.35218119 2.19658089 184.23839188 C2.18829342 186.81157682 2.17400932 189.3846612 2.15821838 191.95780945 C2.15724028 192.70587111 2.15626217 193.45393277 2.15525442 194.22466296 C2.12590258 197.93865618 1.88633055 201.38791485 1 205 C0.67 205 0.34 205 0 205 C0 137.35 0 69.7 0 0 Z " fill="#FAFDFE" transform="translate(668,325)"/>
<path d="M0 0 C0.72348129 0.00187317 1.44696259 0.00374634 2.19236755 0.00567627 C3.71968199 0.0123916 5.24697937 0.02629595 6.77416992 0.046875 C9.11588466 0.07805564 11.45692628 0.08784914 13.79882812 0.09375 C15.28256032 0.10291928 16.76628565 0.11329482 18.25 0.125 C19.30315147 0.13137482 19.30315147 0.13137482 20.37757874 0.13787842 C25.32413803 0.21089714 25.32413803 0.21089714 27.55859375 1.328125 C27.55859375 34.328125 27.55859375 67.328125 27.55859375 101.328125 C27.22859375 101.328125 26.89859375 101.328125 26.55859375 101.328125 C26.55859375 69.318125 26.55859375 37.308125 26.55859375 4.328125 C15.66859375 4.328125 4.77859375 4.328125 -6.44140625 4.328125 C-6.77140625 23.138125 -7.10140625 41.948125 -7.44140625 61.328125 C-10.41140625 62.318125 -13.38140625 63.308125 -16.44140625 64.328125 C-15.15175449 62.95249646 -13.81451332 61.62046107 -12.44140625 60.328125 C-11.78140625 60.328125 -11.12140625 60.328125 -10.44140625 60.328125 C-10.44806808 59.62068649 -10.45472992 58.91324799 -10.46159363 58.18437195 C-10.52169322 51.51893604 -10.56737464 44.8535757 -10.59684277 38.18793011 C-10.61250199 34.76099277 -10.63374429 31.33427923 -10.66772461 27.9074707 C-10.70654139 23.96828892 -10.72111341 20.02919791 -10.734375 16.08984375 C-10.74985886 14.85852219 -10.76534271 13.62720062 -10.78129578 12.35856628 C-10.78152237 11.21761002 -10.78174896 10.07665375 -10.78198242 8.90112305 C-10.78864426 7.895186 -10.79530609 6.88924896 -10.8021698 5.85282898 C-10.44140625 3.328125 -10.44140625 3.328125 -9.12875366 1.50209045 C-6.34621966 -0.43384684 -3.26506384 -0.05758382 0 0 Z " fill="#86989F" transform="translate(350.44140625,216.671875)"/>
<path d="M0 0 C0 30.36 0 60.72 0 92 C-0.33 92 -0.66 92 -1 92 C-1.01030746 91.28099518 -1.02061493 90.56199036 -1.03123474 89.82119751 C-1.13083559 82.91265965 -1.23351999 76.00417312 -1.33933926 69.09572792 C-1.39359036 65.54740097 -1.44680813 61.99906598 -1.49731445 58.45068359 C-1.75671097 40.28923964 -2.19536283 22.14707935 -3 4 C-4.44826491 5.12257421 -5.89599863 6.24583374 -7.34350586 7.36938477 C-8.55290077 8.30754784 -8.55290077 8.30754784 -9.78672791 9.2646637 C-19.98568481 17.26124948 -28.90933153 26.79921348 -38 36 C-38.66 35.67 -39.32 35.34 -40 35 C-38.93987294 33.76878615 -37.87675995 32.54014315 -36.8125 31.3125 C-36.22082031 30.62800781 -35.62914062 29.94351562 -35.01953125 29.23828125 C-8.63874346 0 -8.63874346 0 0 0 Z " fill="#F4F7F8" transform="translate(342,325)"/>
<path d="M0 0 C0.33 0 0.66 0 1 0 C1 26.4 1 52.8 1 80 C6.28 78.02 11.56 76.04 17 74 C17.66 74 18.32 74 19 74 C19 73.34 19 72.68 19 72 C20.06476562 71.46632813 21.12953125 70.93265625 22.2265625 70.3828125 C30.50841866 66.15608443 38.27962868 61.71250953 45.70751953 56.10009766 C49.82497144 53 49.82497144 53 52 53 C52 53.66 52 54.32 52 55 C47.88022406 58.28609447 43.41444441 61.12531926 39 64 C38.42266113 64.37608398 37.84532227 64.75216797 37.25048828 65.13964844 C29.38448658 70.19556413 21.20017188 74.56058697 12.8125 78.6875 C11.90306641 79.14632568 10.99363281 79.60515137 10.05664062 80.07788086 C9.19876953 80.48917236 8.34089844 80.90046387 7.45703125 81.32421875 C6.69366455 81.69635498 5.93029785 82.06849121 5.14379883 82.4519043 C3 83 3 83 -1 81 C-0.67 54.27 -0.34 27.54 0 0 Z " fill="#BAD0D6" transform="translate(631,755)"/>
<path d="M0 0 C0.33 0 0.66 0 1 0 C1 41.91 1 83.82 1 127 C-2.727921 125.1360395 -5.4217908 123.19154906 -8.625 120.5625 C-9.58664062 119.78003906 -10.54828125 118.99757813 -11.5390625 118.19140625 C-14 116 -14 116 -16 113 C-10.6770895 115.36297429 -6.47551387 119.3489229 -2 123 C-0.91896262 109.34716604 -0.78437391 95.72069438 -0.68359375 82.03125 C-0.66297683 79.65514809 -0.64197929 77.27904946 -0.62062073 74.9029541 C-0.56588861 68.702074 -0.51626753 62.50116354 -0.46777344 56.30023193 C-0.41719756 49.9514298 -0.36170145 43.60267079 -0.30664062 37.25390625 C-0.19965833 24.83597449 -0.0980848 12.41800501 0 0 Z " fill="#FCFEFE" transform="translate(341,643)"/>
<path d="M0 0 C2.80875326 2.80875326 2.32240674 5.48455501 2.35058594 9.24780273 C2.36384415 9.99430084 2.37710236 10.74079895 2.39076233 11.50991821 C2.43193847 13.98443781 2.45860927 16.4588691 2.484375 18.93359375 C2.50815888 20.64991541 2.53251943 22.36622917 2.55743408 24.08253479 C2.60740027 27.68298612 2.65017416 31.28343436 2.68798828 34.8840332 C2.73709251 39.50247406 2.80420111 44.12044505 2.87673569 48.73857021 C2.93039707 52.28404515 2.9743849 55.82958955 3.01544952 59.37523079 C3.03636716 61.07814569 3.06033939 62.78102585 3.08739471 64.48385429 C3.12377569 66.86351478 3.14711715 69.2429549 3.16699219 71.62280273 C3.18039139 72.32888168 3.19379059 73.03496063 3.20759583 73.76243591 C3.22324502 77.4237227 3.09329314 78.8600603 1 82 C-0.52509489 78.94981022 -0.12975944 75.77450387 -0.11352539 72.42919922 C-0.11367142 71.64862152 -0.11381744 70.86804382 -0.1139679 70.06381226 C-0.11326986 67.47740931 -0.10548257 64.89107791 -0.09765625 62.3046875 C-0.09579168 60.51392659 -0.09436796 58.72316517 -0.09336853 56.93240356 C-0.08954641 52.21415809 -0.07971871 47.4959433 -0.06866455 42.77770996 C-0.05844389 37.96509211 -0.0538695 33.15246932 -0.04882812 28.33984375 C-0.03809619 18.89321567 -0.0210234 9.44661038 0 0 Z " fill="#FCFEFE" transform="translate(378,219)"/>
<path d="M0 0 C0.99 0.495 0.99 0.495 2 1 C1.96745117 2.22517334 1.93490234 3.45034668 1.90136719 4.71264648 C1.79581491 9.29215539 1.77033348 13.86932312 1.76806641 18.44995117 C1.75611807 20.42578548 1.72293201 22.40161681 1.66748047 24.37670898 C0.94431305 35.00692013 0.94431305 35.00692013 4.20581055 44.76641846 C7.37531718 47.94520718 11.06759354 49.87023466 15 52 C15.66 52.99 16.32 53.98 17 55 C12.08023645 54.57830598 10.3281855 52.48667052 7 49 C5.79681487 48.31314231 4.58948952 47.63349915 3.37866211 46.96020508 C1.11902852 45.36214579 0.15518403 44.5406548 -0.615448 41.85580444 C-0.81066442 39.17366437 -0.78725124 36.5740266 -0.68359375 33.88671875 C-0.67368912 32.91716751 -0.66378448 31.94761627 -0.65357971 30.94868469 C-0.61447659 27.8600668 -0.52666298 24.77503843 -0.4375 21.6875 C-0.40238084 19.59054622 -0.37044289 17.49353657 -0.34179688 15.39648438 C-0.2647276 10.26294551 -0.14397292 5.13208069 0 0 Z " fill="#F7FCFD" transform="translate(668,233)"/>
<path d="M0 0 C0.33 0 0.66 0 1 0 C1 28.38 1 56.76 1 86 C1.66 86 2.32 86 3 86 C2.8864371 87.64666203 2.75882619 89.29236082 2.625 90.9375 C2.55539062 91.85402344 2.48578125 92.77054688 2.4140625 93.71484375 C2.20910156 94.84599609 2.20910156 94.84599609 2 96 C1.01 96.495 1.01 96.495 0 97 C0 64.99 0 32.98 0 0 Z " fill="#CCDFE4" transform="translate(524,767)"/>
<path d="M0 0 C0.66 0.33 1.32 0.66 2 1 C1.154375 1.71285156 0.30875 2.42570312 -0.5625 3.16015625 C-1.7083649 4.12756678 -2.85419642 5.09501684 -4 6.0625 C-4.55300781 6.52849609 -5.10601562 6.99449219 -5.67578125 7.47460938 C-7.45507129 8.97780268 -9.22846599 10.48767482 -11 12 C-11.6290625 12.53423584 -12.258125 13.06847168 -12.90625 13.61889648 C-18.18194646 18.15727773 -23.10827687 22.9906708 -28 27.9375 C-28.77472656 28.71673828 -29.54945313 29.49597656 -30.34765625 30.29882812 C-32.23410757 32.1969242 -34.11816245 34.09733149 -36 36 C-36.66 35.67 -37.32 35.34 -38 35 C-36.93987294 33.76878615 -35.87675995 32.54014315 -34.8125 31.3125 C-34.22082031 30.62800781 -33.62914062 29.94351562 -33.01953125 29.23828125 C-23.15312603 18.3031745 -12.00240792 8.50720122 0 0 Z " fill="#D7E1E3" transform="translate(340,325)"/>
<path d="M0 0 C0.99 0.33 1.98 0.66 3 1 C-0.13353491 3.65905496 -2.91480049 4.75930609 -6.8671875 5.82421875 C-8.00027344 6.13037109 -9.13335938 6.43652344 -10.30078125 6.75195312 C-11.48027344 7.06068359 -12.65976562 7.36941406 -13.875 7.6875 C-15.04675781 8.00783203 -16.21851563 8.32816406 -17.42578125 8.65820312 C-28.08624804 11.49575075 -28.08624804 11.49575075 -33 11 C-33.66 10.01 -34.32 9.02 -35 8 C-34.34 7.01 -33.68 6.02 -33 5 C-33 6.32 -33 7.64 -33 9 C-16.04061212 6.04320546 -16.04061212 6.04320546 0 0 Z " fill="#F6FAFB" transform="translate(600,848)"/>
<path d="M0 0 C0.99 0 1.98 0 3 0 C1.34027547 5.61540134 -1.18578768 10.69639396 -3.75 15.9375 C-7.44652869 23.57459228 -10.83242382 31.23306972 -13.84375 39.1640625 C-15 42 -15 42 -17 45 C-16.61293047 37.5106546 -13.89657474 31.70875133 -10.6875 25 C-10.20087891 23.9584375 -9.71425781 22.916875 -9.21289062 21.84375 C-7.10129415 17.3420423 -4.94664469 12.86898785 -2.69140625 8.4375 C-1.24617089 5.50030112 -0.4025766 3.22061282 0 0 Z " fill="#A7BDC5" transform="translate(265,409)"/>
<path d="M0 0 C0.33 0 0.66 0 1 0 C1 8.25 1 16.5 1 25 C1.66 25 2.32 25 3 25 C2.8864371 26.64666203 2.75882619 28.29236082 2.625 29.9375 C2.52058594 31.31228516 2.52058594 31.31228516 2.4140625 32.71484375 C2.27742187 33.46894531 2.14078125 34.22304688 2 35 C1.01 35.495 1.01 35.495 0 36 C0 24.12 0 12.24 0 0 Z " fill="#F6FAFB" transform="translate(524,828)"/>
<path d="M0 0 C3.52238047 1.56367357 6.27123994 3.69495889 9.25 6.125 C10.14203125 6.84945312 11.0340625 7.57390625 11.953125 8.3203125 C12.62859375 8.87460937 13.3040625 9.42890625 14 10 C14.66 7.03 15.32 4.06 16 1 C16.33 1 16.66 1 17 1 C17 5.29 17 9.58 17 14 C13.272079 12.1360395 10.5782092 10.19154906 7.375 7.5625 C6.41335938 6.78003906 5.45171875 5.99757813 4.4609375 5.19140625 C2 3 2 3 0 0 Z " fill="#EBF2F5" transform="translate(325,756)"/>
<path d="M0 0 C2.82202081 4.23303121 4.37875791 8.82441645 6.1875 13.5625 C6.56841797 14.53380859 6.94933594 15.50511719 7.34179688 16.50585938 C7.69693359 17.43333984 8.05207031 18.36082031 8.41796875 19.31640625 C8.74563232 20.16662354 9.0732959 21.01684082 9.41088867 21.89282227 C10 24 10 24 9 26 C6.37942112 24.40647628 5.17158335 23.57410862 4.27734375 20.58203125 C4.16519531 19.66808594 4.05304688 18.75414062 3.9375 17.8125 C3.40397812 14.1787834 2.75197219 10.96970561 1.375 7.5625 C0 4 0 4 0 0 Z " fill="#80979F" transform="translate(245,634)"/>
<path d="M0 0 C1.3494709 2.69894181 0.66874571 3.72118731 -0.21484375 6.5703125 C-0.48876953 7.46621094 -0.76269531 8.36210937 -1.04492188 9.28515625 C-1.33947266 10.22230469 -1.63402344 11.15945313 -1.9375 12.125 C-2.22818359 13.06988281 -2.51886719 14.01476562 -2.81835938 14.98828125 C-3.53906479 17.32762013 -4.26652606 19.66463921 -5 22 C-5.33 22 -5.66 22 -6 22 C-6 19.03 -6 16.06 -6 13 C-6.33 13 -6.66 13 -7 13 C-7 11.35 -7 9.7 -7 8 C-6.401875 7.979375 -5.80375 7.95875 -5.1875 7.9375 C-2.56685398 7.09543384 -2.56685398 7.09543384 -1.25 3.4375 C-0.8375 2.303125 -0.425 1.16875 0 0 Z " fill="#778A92" transform="translate(247,454)"/>
<path d="M0 0 C1.23769979 4.20067807 1.01322049 7.76209518 0 12 C-0.95298777 13.36733028 -1.95374591 14.70264493 -3 16 C-3.68255989 18.32873375 -4.35050775 20.66182791 -5 23 C-5.66 23.66 -6.32 24.32 -7 25 C-5.63353125 16.3321012 -2.88315195 8.25329756 0 0 Z " fill="#81979F" transform="translate(212,438)"/>
<path d="M0 0 C0.66 0.33 1.32 0.66 2 1 C0.43551329 6.6143991 -1.16395187 11.86810338 -4 17 C-4.33 17 -4.66 17 -5 17 C-5.33 15.02 -5.66 13.04 -6 11 C-5.01 10.67 -4.02 10.34 -3 10 C-2.87625 9.0925 -2.7525 8.185 -2.625 7.25 C-2.07890323 4.41029677 -1.42736197 2.47409409 0 0 Z " fill="#70858F" transform="translate(789,672)"/>
<path d="M0 0 C0.95786616 3.43235374 1.01444037 5.53399539 0 9 C-0.95939668 10.69036558 -1.96642853 12.35394174 -3 14 C-4.37302304 16.64726745 -5.69035949 19.32088768 -7 22 C-8 20 -8 20 -7.37915039 17.93701172 C-7.03875732 17.10959473 -6.69836426 16.28217773 -6.34765625 15.4296875 C-5.80141602 14.08583984 -5.80141602 14.08583984 -5.24414062 12.71484375 C-4.65922852 11.30912109 -4.65922852 11.30912109 -4.0625 9.875 C-3.67642578 8.93011719 -3.29035156 7.98523438 -2.89257812 7.01171875 C-1.93524154 4.67156265 -0.97080009 2.33459572 0 0 Z " fill="#889EA5" transform="translate(221,415)"/>
<path d="M0 0 C0.66 0 1.32 0 2 0 C0.62820313 7.48252838 -1.92163279 14.05604954 -5 21 C-6.24770354 17.25688939 -5.52128537 16.21056673 -4.0625 12.625 C-2.53924951 8.87625472 -1.75650442 6.05825968 -2 2 C-1.34 2 -0.68 2 0 2 C0 1.34 0 0.68 0 0 Z " fill="#96ACB4" transform="translate(799,647)"/>
<path d="M0 0 C0.66 0.33 1.32 0.66 2 1 C-0.26328524 3.0091515 -2.53480776 5.0072998 -4.8125 7 C-5.77639648 7.85851562 -5.77639648 7.85851562 -6.75976562 8.734375 C-7.69272461 9.54648437 -7.69272461 9.54648437 -8.64453125 10.375 C-9.21534424 10.87773438 -9.78615723 11.38046875 -10.37426758 11.8984375 C-12 13 -12 13 -15 13 C-13.57285171 9.43212928 -12.36025265 8.65646258 -9 7 C-7.39267019 5.8237752 -5.80975038 4.6136253 -4.25 3.375 C-3.45078125 2.74335937 -2.6515625 2.11171875 -1.828125 1.4609375 C-1.22484375 0.97882812 -0.6215625 0.49671875 0 0 Z " fill="#E2EDEF" transform="translate(682,757)"/>
<path d="M0 0 C1.90747183 2.86120775 3.00353706 5.35254993 4.1875 8.5625 C4.55230469 9.53316406 4.91710937 10.50382812 5.29296875 11.50390625 C6 14 6 14 5 16 C3 14.875 3 14.875 1 13 C0.75 9.8125 0.75 9.8125 1 7 C0.34 6.67 -0.32 6.34 -1 6 C-0.67 4.02 -0.34 2.04 0 0 Z " fill="#556872" transform="translate(795,432)"/>
<path d="M0 0 C0.33 0.66 0.66 1.32 1 2 C-0.1875 4.25 -0.1875 4.25 -2 7 C-2.66 8.093125 -3.32 9.18625 -4 10.3125 C-4.99 11.6428125 -4.99 11.6428125 -6 13 C-6.99 13 -7.98 13 -9 13 C-7.50923566 9.7173068 -5.61379679 7.06922559 -3.375 4.25 C-2.74335938 3.45078125 -2.11171875 2.6515625 -1.4609375 1.828125 C-0.97882813 1.22484375 -0.49671875 0.6215625 0 0 Z " fill="#5F767E" transform="translate(264,346)"/>
<path d="M0 0 C4.44321353 0.51944043 6.83253477 2.10837085 10.25 4.9375 C11.12140625 5.64777344 11.9928125 6.35804688 12.890625 7.08984375 C15 9 15 9 16 11 C11.09132973 10.57925683 9.31666697 8.4784556 6 5 C4.91574363 4.22149365 3.81133025 3.47020108 2.6875 2.75 C1.800625 2.1725 0.91375 1.595 0 1 C0 0.67 0 0.34 0 0 Z " fill="#C5D3D7" transform="translate(669,277)"/>
<path d="M0 0 C0.85432111 3.10015009 1.18380965 4.94182506 0 8 C-0.97850195 9.02104551 -1.97980427 10.0206121 -3 11 C-4.17574711 13.09989652 -4.17574711 13.09989652 -5 15 C-5.66 15 -6.32 15 -7 15 C-5.45454854 9.52067211 -2.84456788 4.88570819 0 0 Z " fill="#788F97" transform="translate(748,673)"/>
<path d="M0 0 C2.74792483 3.40219265 6 7.48464588 6 12 C5.34 12 4.68 12 4 12 C4 11.34 4 10.68 4 10 C2.68 9.67 1.36 9.34 0 9 C0 6.03 0 3.06 0 0 Z " fill="#5A7078" transform="translate(259,669)"/>
<path d="M0 0 C3.27723056 1.05339554 4.60460094 2.63763259 6.3125 5.5 C7.1478125 7.2325 7.1478125 7.2325 8 9 C7.67 9.66 7.34 10.32 7 11 C4.36 8.03 1.72 5.06 -1 2 C-0.67 1.34 -0.34 0.68 0 0 Z " fill="#555F63" transform="translate(710,362)"/>
<path d="M0 0 C0 4.70847601 -2.9525759 7.5743242 -6 11 C-8.875 13 -8.875 13 -11 14 C-9.42219077 10.28954753 -7.09296752 7.70093616 -4.375 4.75 C-3.55773437 3.85796875 -2.74046875 2.9659375 -1.8984375 2.046875 C-1.27195312 1.37140625 -0.64546875 0.6959375 0 0 Z " fill="#779098" transform="translate(715,724)"/>
<path d="M0 0 C0.99 0 1.98 0 3 0 C1.3341708 6.16356805 -1.87805286 11.48259656 -5 17 C-5.33 16.34 -5.66 15.68 -6 15 C-5.0390625 12.79296875 -5.0390625 12.79296875 -3.625 10.1875 C-1.77197808 6.7661383 -0.59524388 3.85524234 0 0 Z " fill="#8499A6" transform="translate(265,409)"/>
<path d="M0 0 C2.73704754 2.73704754 3.16182449 5.26044774 4 9 C3.625 11.4375 3.625 11.4375 3 13 C2.01 13 1.02 13 0 13 C0 8.71 0 4.42 0 0 Z " fill="#768B94" transform="translate(241,621)"/>
<path d="M0 0 C2.9375 0.375 2.9375 0.375 6 1 C7.43088528 3.86177057 6.59991697 5.93375773 6 9 C2.91910327 6.22719294 1.31224548 3.93673644 0 0 Z " fill="#566C76" transform="translate(246,723)"/>
<path d="M0 0 C3.81229172 0.78957506 5.439867 2.01317816 8 5 C9.25 7.25 9.25 7.25 10 9 C6.78956118 7.61811547 4.95063635 6.07578097 2.75 3.375 C2.22921875 2.74335937 1.7084375 2.11171875 1.171875 1.4609375 C0.78515625 0.97882812 0.3984375 0.49671875 0 0 Z " fill="#667A83" transform="translate(292,779)"/>
<path d="M0 0 C0.33 0.66 0.66 1.32 1 2 C-2.80411834 5.91939465 -6.81576108 9.49102731 -11 13 C-9.46356148 9.31930113 -7.21849055 7.01224796 -4.375 4.25 C-3.55773437 3.45078125 -2.74046875 2.6515625 -1.8984375 1.828125 C-0.95871094 0.92320312 -0.95871094 0.92320312 0 0 Z " fill="#97AAB0" transform="translate(288,319)"/>
<path d="M0 0 C3.3 0.99 6.6 1.98 10 3 C10.33 4.65 10.66 6.3 11 8 C6.40378078 6.5129879 3.53027653 4.20187872 0 1 C0 0.67 0 0.34 0 0 Z " fill="#AEBCC2" transform="translate(314,799)"/>
<path d="M0 0 C0.33 0.66 0.66 1.32 1 2 C-1.19566645 8.47143795 -1.19566645 8.47143795 -4.1875 10.4375 C-5.0846875 10.7159375 -5.0846875 10.7159375 -6 11 C-4.54955729 6.89041233 -2.48889248 3.56741255 0 0 Z " fill="#6B8089" transform="translate(244,374)"/>
<path d="M0 0 C3.81684226 1.55500981 6.19195732 4.03595495 9 7 C5.7 6.01 2.4 5.02 -1 4 C-0.67 2.68 -0.34 1.36 0 0 Z " fill="#576C73" transform="translate(696,297)"/>
<path d="M0 0 C-3.18382329 2.81645906 -5.75534029 3.72317437 -10 4 C-10.66 3.34 -11.32 2.68 -12 2 C-10.56656 1.46809459 -9.12804633 0.94984742 -7.6875 0.4375 C-6.48673828 0.00244141 -6.48673828 0.00244141 -5.26171875 -0.44140625 C-3 -1 -3 -1 0 0 Z " fill="#C7D6DB" transform="translate(603,849)"/>
<path d="M0 0 C0.66 0.33 1.32 0.66 2 1 C-0.77280706 4.08089673 -3.06326356 5.68775452 -7 7 C-7.66 6.34 -8.32 5.68 -9 5 C-7.54735962 4.1361871 -6.0876837 3.28419546 -4.625 2.4375 C-3.40683594 1.72400391 -3.40683594 1.72400391 -2.1640625 0.99609375 C-1.44992187 0.66738281 -0.73578125 0.33867188 0 0 Z " fill="#C2D2D7" transform="translate(659,822)"/>
<path d="M0 0 C3.74776119 2.41791045 3.74776119 2.41791045 4.8125 4.875 C5.03737521 7.42358568 4.61800062 9.5279975 4 12 C2.09681116 9.14521674 1.5380901 7.58058692 0.875 4.3125 C0.70742188 3.50425781 0.53984375 2.69601562 0.3671875 1.86328125 C0.24601563 1.24839844 0.12484375 0.63351562 0 0 Z " fill="#7D8C8E" transform="translate(762,453)"/>
<path d="M0 0 C3.73487777 0.4979837 5.81237635 0.87491756 9 3 C9 3.66 9 4.32 9 5 C9.99 5.33 10.98 5.66 12 6 C11.01 6.495 11.01 6.495 10 7 C7.6171875 5.8203125 7.6171875 5.8203125 4.875 4.125 C3.96492188 3.57070313 3.05484375 3.01640625 2.1171875 2.4453125 C1.41851562 1.96835937 0.71984375 1.49140625 0 1 C0 0.67 0 0.34 0 0 Z " fill="#B8C8CD" transform="translate(346,821)"/>
<path d="M0 0 C4.42857143 5.14285714 4.42857143 5.14285714 5 9 C4.34 9 3.68 9 3 9 C3 8.34 3 7.68 3 7 C2.01 7.33 1.02 7.66 0 8 C0 5.36 0 2.72 0 0 Z " fill="#6B7B87" transform="translate(771,382)"/>
<path d="M0 0 C0.33 0.66 0.66 1.32 1 2 C-1.31 4.97 -3.62 7.94 -6 11 C-6 8.66666667 -6 6.33333333 -6 4 C-5.38125 3.896875 -4.7625 3.79375 -4.125 3.6875 C-1.63473516 3.12474627 -1.63473516 3.12474627 0 0 Z " fill="#8096A7" transform="translate(292,372)"/>
<path d="M0 0 C0.66 0.33 1.32 0.66 2 1 C-0.97 3.97 -3.94 6.94 -7 10 C-7.33 9.01 -7.66 8.02 -8 7 C-5.36 4.69 -2.72 2.38 0 0 Z " fill="#031520" transform="translate(695,748)"/>
<path d="M0 0 C1.99097846 2.98646769 2.94124926 5.59687262 4 9 C0.75700849 6.61042731 -1.50902342 4.7952131 -3 1 C-2.01 0.67 -1.02 0.34 0 0 Z " fill="#64787F" transform="translate(269,750)"/>
<path d="M0 0 C0.66 0.99 1.32 1.98 2 3 C-0.36620011 5.61527381 -2.942048 7.26440562 -6 9 C-4.47291037 5.56404834 -2.40072955 2.88087546 0 0 Z " fill="#657B85" transform="translate(722,715)"/>
<path d="M0 0 C2.31 1.98 4.62 3.96 7 6 C6.67 6.66 6.34 7.32 6 8 C5.01 7.34 4.02 6.68 3 6 C2.34 6 1.68 6 1 6 C0.67 4.02 0.34 2.04 0 0 Z " fill="#6C8188" transform="translate(735,334)"/>
<path d="M0 0 C0.66 0.33 1.32 0.66 2 1 C0.71034824 2.37562854 -0.62689293 3.70766393 -2 5 C-2.66 5 -3.32 5 -4 5 C-4.33 5.99 -4.66 6.98 -5 8 C-5.99 7.67 -6.98 7.34 -8 7 C-5.36 4.69 -2.72 2.38 0 0 Z " fill="#2A424F" transform="translate(281,328)"/>
<path d="M0 0 C0.66 0.33 1.32 0.66 2 1 C1.3125 2.9375 1.3125 2.9375 0 5 C-2.625 5.75 -2.625 5.75 -5 6 C-3.35 4.02 -1.7 2.04 0 0 Z " fill="#38535D" transform="translate(703,738)"/>
<path d="M0 0 C2.5 2.3125 2.5 2.3125 5 5 C5 5.99 5 6.98 5 8 C3.0625 7.375 3.0625 7.375 1 6 C0.25 2.875 0.25 2.875 0 0 Z " fill="#69808A" transform="translate(282,709)"/>
<path d="M0 0 C2.18975773 3.28463659 2.99806563 6.20696275 4 10 C2.35 8.68 0.7 7.36 -1 6 C-0.67 4.02 -0.34 2.04 0 0 Z " fill="#8599A0" transform="translate(795,432)"/>
<path d="M0 0 C0.33 0.99 0.66 1.98 1 3 C-0.98 4.98 -2.96 6.96 -5 9 C-5.66 8.67 -6.32 8.34 -7 8 C-4.69 5.36 -2.38 2.72 0 0 Z " fill="#C9D9DF" transform="translate(309,352)"/>
<path d="M0 0 C0.66 0.33 1.32 0.66 2 1 C1.34 3.31 0.68 5.62 0 8 C-0.66 8 -1.32 8 -2 8 C-1.125 1.125 -1.125 1.125 0 0 Z " fill="#506771" transform="translate(789,672)"/>
</svg>
