<?xml version="1.0" standalone="no"?>
<!DOCTYPE svg PUBLIC "-//W3C//DTD SVG 20010904//EN"
 "http://www.w3.org/TR/2001/REC-SVG-20010904/DTD/svg10.dtd">
<svg version="1.0" xmlns="http://www.w3.org/2000/svg"
 width="500.000000pt" height="500.000000pt" viewBox="0 0 500.000000 500.000000"
 preserveAspectRatio="xMidYMid meet">

<g transform="translate(0.000000,500.000000) scale(0.100000,-0.100000)"
fill="#000000" stroke="none">
<path d="M2395 4993 c-65 -3 -221 -20 -270 -28 -16 -3 -66 -12 -110 -21 -348
-64 -766 -256 -1046 -480 -124 -99 -131 -105 -244 -219 -449 -448 -713 -1084
-717 -1725 -4 -518 163 -1041 471 -1472 80 -113 120 -160 249 -291 304 -310
676 -529 1103 -652 158 -46 305 -71 511 -89 147 -13 187 -13 325 0 374 35 650
112 968 272 117 58 314 186 425 275 115 93 408 387 386 387 -3 0 5 11 17 24
91 100 242 353 320 536 88 208 140 383 173 589 21 128 43 386 38 441 -2 25 -9
101 -14 170 -31 356 -154 744 -335 1053 -386 656 -1056 1103 -1810 1205 -151
21 -329 31 -440 25z m-630 -1893 c366 -35 578 -148 657 -353 26 -66 37 -324
19 -434 -29 -167 -142 -300 -310 -364 -201 -75 -355 -90 -959 -89 -267 0 -488
3 -491 6 -3 3 -5 279 -3 612 1 334 3 613 2 620 0 15 919 17 1085 2z m1904 -4
c6 -8 134 -204 282 -437 149 -233 306 -477 348 -542 134 -207 153 -239 144
-248 -5 -5 -126 -8 -269 -7 l-259 3 -32 55 c-18 30 -44 74 -57 98 l-26 42
-383 0 -383 0 -59 -100 -58 -100 -263 0 c-144 0 -265 4 -268 8 -3 5 18 44 47
88 29 43 104 160 166 259 97 152 393 614 533 833 l40 62 243 0 c195 0 245 -3
254 -14z"/>
<path d="M1208 2773 c-2 -9 -2 -143 0 -299 2 -211 6 -283 15 -286 7 -2 104 -1
217 2 228 7 286 19 367 73 54 37 79 79 94 161 12 69 -1 171 -28 219 -27 45
-95 94 -156 112 -70 20 -224 34 -379 35 -110 0 -127 -2 -130 -17z"/>
<path d="M3385 2674 c-17 -30 -35 -63 -40 -72 -6 -9 -30 -51 -54 -92 -25 -41
-51 -86 -60 -100 -10 -15 -11 -21 -3 -17 6 5 12 4 12 -1 0 -7 359 -5 367 2 2
2 -15 34 -102 184 -5 9 -27 47 -48 85 -21 37 -39 67 -40 67 -2 0 -16 -25 -32
-56z"/>
</g>
</svg>
